<?xml version="1.0" encoding="UTF-8"?>
<svg version="1.1" xmlns="http://www.w3.org/2000/svg" width="500" height="500">
<path d="M0 0 C165 0 330 0 500 0 C500 165 500 330 500 500 C335 500 170 500 0 500 C0 335 0 170 0 0 Z " fill="#001C42" transform="translate(0,0)"/>
<path d="M0 0 C3.10132978 0.31592494 4.58779192 0.54964174 6.73046875 2.890625 C7.21128906 3.66921875 7.69210937 4.4478125 8.1875 5.25 C8.92033203 6.40242187 8.92033203 6.40242187 9.66796875 7.578125 C14.78910743 16.88928624 13.63896173 26.9491396 11 37 C10.62617188 37.68191406 10.25234375 38.36382812 9.8671875 39.06640625 C8.79269371 41.46223699 9.13440784 42.57634194 10 45 C14.04271147 36.5220808 16.16190259 29.36167091 16.3125 19.9375 C16.33908691 18.92804321 16.33908691 18.92804321 16.36621094 17.89819336 C16.35871909 12.79436918 15.07598127 9.52941368 13 5 C13.3125 2.0625 13.3125 2.0625 14 0 C16.43766867 0.96789785 17.77066266 1.66378013 19.265625 3.85546875 C24.91959126 17.24998406 22.13937083 30.93031865 17 44 C16.42894531 45.07121094 15.85789062 46.14242187 15.26953125 47.24609375 C13.81145499 49.80766829 13.81145499 49.80766829 14.18359375 52.046875 C14.45300781 52.69140625 14.72242188 53.3359375 15 54 C15.32097656 54.85078125 15.64195312 55.7015625 15.97265625 56.578125 C16.33230469 57.45984375 16.69195312 58.3415625 17.0625 59.25 C17.42472656 60.14203125 17.78695312 61.0340625 18.16015625 61.953125 C18.43730469 62.62859375 18.71445312 63.3040625 19 64 C22.43844384 63.37504371 22.43844384 63.37504371 24.6875 60.625 C26.96985056 56.06029888 27.42611904 52.04406025 27 47 C26.37400383 45.31763529 25.71247732 43.6476038 25 42 C24.875 39.1875 24.875 39.1875 25 37 C25.99 37 26.98 37 28 37 C32.52361611 42.79588314 32.65355333 48.14982458 32.453125 55.38671875 C31.68189373 61.5366233 29.27613549 64.85775483 24.875 69 C20.3546661 70.57229005 15.7116155 70.85973444 11 70 C6.06266272 67.04668476 3.91872551 62.83383492 1.25 57.9375 C-4.66966609 47.49526662 -11.99951743 38.88592521 -20.25 30.19140625 C-21.97457265 28.03184095 -22.60639923 26.69985531 -23 24 C-21.68 23.67 -20.36 23.34 -19 23 C-8.99688364 33.54534136 -0.19447921 44.41407649 6.99462891 57.10083008 C8.79275846 60.22954237 9.94250259 61.96166839 13 64 C5.93164504 49.36758727 -1.7933696 36.82471087 -12.57519531 24.63037109 C-14.76418424 22.12556163 -16.88156602 19.56462428 -19 17 C-18.34 16.34 -17.68 15.68 -17 15 C-13.69235338 15.00728557 -12.66161923 16.32916983 -10.2734375 18.65234375 C-9.29864913 19.73970959 -8.33273312 20.8350826 -7.375 21.9375 C-6.40380746 23.03009161 -5.43245951 24.1225451 -4.4609375 25.21484375 C-3.64882813 26.13394531 -2.83671875 27.05304688 -2 28 C-1.34 28.66 -0.68 29.32 0 30 C4.89921786 26.83294044 4.89921786 26.83294044 7.60546875 21.87890625 C7.85625457 14.98826728 5.29681688 9.55201875 0.75 4.5 C0.1725 4.005 -0.405 3.51 -1 3 C-0.67 2.01 -0.34 1.02 0 0 Z " fill="#34ABF2" transform="translate(294,138)"/>
<path d="M0 0 C4.03566197 2.57595445 6.76937005 5.53874011 8.9375 9.875 C9.44671186 15.98554235 9.02602244 19.01297331 4.9375 23.875 C1.92334008 26.79782174 -1.37027712 28.58154457 -5.0625 30.5 C-16.76344408 36.76668012 -26.4886117 45.80136892 -36.0625 54.875 C-36.7225 53.555 -37.3825 52.235 -38.0625 50.875 C-28.05115705 38.49254951 -15.62770873 30.09383268 -2.1875 21.875 C0.97485363 20.22719133 0.97485363 20.22719133 1.9375 17.875 C-11.67613346 24.45122193 -23.75332828 31.18878201 -34.84985352 41.6081543 C-39.43948164 45.79485042 -39.43948164 45.79485042 -43.0078125 46.25390625 C-44.02488281 46.06634766 -44.02488281 46.06634766 -45.0625 45.875 C-43.70007574 42.80786756 -42.16550295 40.75659707 -39.75 38.4375 C-39.13382813 37.839375 -38.51765625 37.24125 -37.8828125 36.625 C-37.28210938 36.0475 -36.68140625 35.47 -36.0625 34.875 C-35.08089457 33.89827818 -34.10137306 32.91945233 -33.125 31.9375 C-32.444375 31.256875 -31.76375 30.57625 -31.0625 29.875 C-31.990625 29.5346875 -31.990625 29.5346875 -32.9375 29.1875 C-35.68223575 27.49222204 -35.99713654 25.84554046 -37.0625 22.875 C-45.88461628 23.66585432 -52.15349372 25.19783205 -59.0625 30.875 C-59.3925 29.225 -59.7225 27.575 -60.0625 25.875 C-52.78783622 19.31005952 -47.30868663 17.35917045 -37.484375 17.57421875 C-33.10149459 17.95947194 -29.03744855 18.90585626 -24.81640625 20.12109375 C-21.91452862 20.91550848 -19.03532268 21.42404163 -16.0625 21.875 C-16.0625 21.215 -16.0625 20.555 -16.0625 19.875 C-17.58314794 19.41605193 -19.10402948 18.95787786 -20.625 18.5 C-21.47191406 18.24476563 -22.31882813 17.98953125 -23.19140625 17.7265625 C-24.13886719 17.44554687 -25.08632812 17.16453125 -26.0625 16.875 C-27.72152344 16.33939453 -27.72152344 16.33939453 -29.4140625 15.79296875 C-38.43921079 13.52218733 -48.46465544 13.95500856 -57.14453125 17.31640625 C-59.0625 17.875 -59.0625 17.875 -62.0625 16.875 C-60.67084843 13.40680029 -59.42551441 12.10566832 -56 10.625 C-42.24267082 5.64936654 -28.31928984 9.1398869 -15.515625 15.05078125 C-11.85388967 16.62844381 -10.04084131 17.18801683 -6.14453125 15.94140625 C-4.18359424 15.04592014 -2.24776935 14.09242282 -0.34765625 13.07421875 C1.9375 11.875 1.9375 11.875 3.9375 11.875 C3.60084085 9.39251876 3.60084085 9.39251876 1.9375 6.875 C-3.46817421 3.96162611 -9.03714356 3.37288696 -15.0625 3.875 C-16.73183058 4.5349679 -18.3989521 5.20058869 -20.0625 5.875 C-22.875 5.5 -22.875 5.5 -25.0625 4.875 C-24.08269223 2.202797 -23.47820953 1.09002217 -20.91015625 -0.23828125 C-14.59767425 -2.20389636 -6.25993442 -2.33538392 0 0 Z " fill="#34ABF2" transform="translate(260.0625,114.125)"/>
<path d="M0 0 C6.25835741 3.24953173 9.54308911 8.02300426 12.94262695 14.06323242 C18.4385262 23.80509769 25.21638959 32.50605288 33.33984375 40.22265625 C35 42 35 42 35.25 44.75 C35.1675 45.4925 35.085 46.235 35 47 C30.49336166 46.61463425 28.15180021 43.41446638 25.3125 40.25 C24.78430664 39.66798828 24.25611328 39.08597656 23.71191406 38.48632812 C15.83445708 29.63193304 9.65031399 19.65386363 3.62890625 9.484375 C2.23851203 6.90976695 2.23851203 6.90976695 0 6 C6.46880884 20.92524051 14.01918496 33.64237732 25.68481445 45.0949707 C27.04296875 46.4765625 27.04296875 46.4765625 29 49 C28.80078125 51.3359375 28.80078125 51.3359375 28 53 C23.58540416 52.59773543 21.46302944 49.59612875 18.75 46.4375 C18.29109375 45.91736328 17.8321875 45.39722656 17.359375 44.86132812 C16.2317857 43.58104445 15.11482685 42.29141202 14 41 C11.04398919 42.74193494 8.40114933 44.53607552 6 47 C5.17686419 51.71432327 5.61464374 54.45920343 7.5625 58.75 C9 62 9 62 8.6875 64.4375 C8.460625 64.953125 8.23375 65.46875 8 66 C5.097561 64.99915896 4.07029746 64.10910574 2.38671875 61.49609375 C0.63200562 57.07223951 0.55799248 53.39663938 0.625 48.6875 C0.61339844 47.88376953 0.60179687 47.08003906 0.58984375 46.25195312 C0.61496336 41.0480071 1.47674453 36.78780996 3.33862305 31.92724609 C4.15103529 29.5598846 4.2402792 27.48288508 4 25 C3.34 25 2.68 25 2 25 C1.87753906 25.70253906 1.75507813 26.40507812 1.62890625 27.12890625 C0.96067378 30.17953273 -0.02636279 32.99249352 -1.0625 35.9375 C-4.43201106 46.91318678 -4.18156014 56.09817977 0.80859375 66.4765625 C1.84777772 68.67758823 2.51527196 70.62650407 3 73 C1.68 73 0.36 73 -1 73 C-7.53556548 65.5080103 -9.64647867 57.54528363 -9.42578125 47.68359375 C-8.47498158 39.45786819 -6.05779756 31.07722128 -2.32421875 23.6796875 C-0.61412947 20.21915284 -0.94921933 18.67773235 -2 15 C-2.50443115 13.76401162 -3.02580686 12.53482505 -3.5625 11.3125 C-5 8 -5 8 -5 5 C-9.09472335 7.10269577 -11.11068881 8.78200293 -13 13 C-13.35567757 16.28095161 -13.28333064 19.51740027 -13.1875 22.8125 C-13.17396484 23.69615234 -13.16042969 24.57980469 -13.14648438 25.49023438 C-13.11129217 27.66042023 -13.05748985 29.83029033 -13 32 C-13.99 32 -14.98 32 -16 32 C-19.67132605 25.26923557 -20.40288951 18.07712393 -18.34375 10.625 C-14.77759554 2.50892434 -8.74606817 -1.24943831 0 0 Z " fill="#34ACF3" transform="translate(192,170)"/>
<path d="M0 0 C0.55945313 0.25265625 1.11890625 0.5053125 1.6953125 0.765625 C0.14126007 4.58011733 -2.34081591 7.01845157 -5.3046875 9.765625 C-5.995625 10.42691406 -6.6865625 11.08820313 -7.3984375 11.76953125 C-16.41605912 20.18695403 -26.25434972 26.99298257 -37.2578125 32.57421875 C-39.4502497 33.60004601 -39.4502497 33.60004601 -40.3046875 35.765625 C-25.71275928 31.63124534 -13.28577829 22.32079103 -2.3046875 12.078125 C0.6953125 9.765625 0.6953125 9.765625 3.6328125 9.890625 C4.65375 10.32375 4.65375 10.32375 5.6953125 10.765625 C2.01699233 15.29178493 -1.71555113 19.15987499 -6.3046875 22.765625 C-4.53158531 25.67533116 -2.70884384 28.34023991 -0.3046875 30.765625 C3.10987584 31.51608006 3.10987584 31.51608006 6.6953125 30.765625 C8.17422081 30.59668117 9.65339 30.43000528 11.1328125 30.265625 C12.89625 30.018125 12.89625 30.018125 14.6953125 29.765625 C14.6953125 31.085625 14.6953125 32.405625 14.6953125 33.765625 C7.40228854 37.74363807 0.1495165 37.89506641 -7.86328125 35.86328125 C-10.11671944 35.15735468 -12.36036421 34.41891604 -14.58984375 33.640625 C-17.3051859 32.61224365 -17.3051859 32.61224365 -20.3046875 32.765625 C-20.6346875 33.425625 -20.9646875 34.085625 -21.3046875 34.765625 C-19.95121061 35.22599129 -18.5968605 35.68379037 -17.2421875 36.140625 C-16.48808594 36.39585937 -15.73398437 36.65109375 -14.95703125 36.9140625 C-14.08175781 37.19507813 -13.20648438 37.47609375 -12.3046875 37.765625 C-10.64759766 38.30123047 -10.64759766 38.30123047 -8.95703125 38.84765625 C0.28985228 41.17173928 9.97979204 40.62454874 18.6953125 36.765625 C19.7059375 36.37375 20.7165625 35.981875 21.7578125 35.578125 C22.3971875 35.31 23.0365625 35.041875 23.6953125 34.765625 C23.6953125 36.415625 23.6953125 38.065625 23.6953125 39.765625 C22.30453949 40.58675677 20.90742357 41.39714995 19.5078125 42.203125 C18.73050781 42.65558594 17.95320313 43.10804688 17.15234375 43.57421875 C7.2531979 48.37428152 -5.24844454 45.69917147 -15.3046875 42.765625 C-18.25036796 41.50943247 -21.0807789 40.16920003 -23.90234375 38.65625 C-28.10329102 37.09882564 -30.94668199 38.61131228 -34.9296875 40.328125 C-38.3046875 41.765625 -38.3046875 41.765625 -41.3046875 41.765625 C-40.44321112 44.66331829 -39.70135862 46.42097633 -37.3984375 48.421875 C-32.79086859 50.4231423 -28.45398551 50.08308479 -23.4921875 49.953125 C-22.51314453 49.93958984 -21.53410156 49.92605469 -20.52539062 49.91210938 C-18.11792125 49.87687812 -15.71159186 49.82761765 -13.3046875 49.765625 C-14.3046875 52.765625 -14.3046875 52.765625 -17.1171875 54.453125 C-23.28897934 56.85821501 -31.04028449 56.95303315 -37.2421875 54.578125 C-41.08408334 52.30434991 -44.27913395 49.8167321 -46.3046875 45.765625 C-46.98748529 40.55388993 -47.43164314 35.37205023 -44.1171875 31.015625 C-40.32673311 27.25180144 -35.58986232 25.16992243 -30.875 22.76953125 C-23.22358185 18.66620062 -16.41085941 12.73543135 -10.1171875 6.80078125 C-9.61977051 6.33260986 -9.12235352 5.86443848 -8.60986328 5.38208008 C-7.26110932 4.09341912 -5.93445227 2.7817445 -4.609375 1.46875 C-2.3046875 -0.234375 -2.3046875 -0.234375 0 0 Z " fill="#34ACF3" transform="translate(277.3046875,210.234375)"/>
<path d="M0 0 C1.98 0 3.96 0 6 0 C7.65 6.27 9.3 12.54 11 19 C12.93285685 13.12229456 12.93285685 13.12229456 14.85913086 7.24243164 C15.10026611 6.51403076 15.34140137 5.78562988 15.58984375 5.03515625 C15.83597412 4.2862915 16.08210449 3.53742676 16.33569336 2.76586914 C17 1 17 1 18 0 C19.65 0 21.3 0 23 0 C24.98 6.93 26.96 13.86 29 21 C30.65 14.07 32.3 7.14 34 0 C35.98 0 37.96 0 40 0 C38.81453618 8.65700556 36.69315627 16.69978068 34 25 C33.31083096 27.32785988 32.65257993 29.66158859 32 32 C30.35 32 28.7 32 27 32 C21.44419134 17.40318907 21.44419134 17.40318907 21 10 C20.34 10 19.68 10 19 10 C18.87625 11.00289063 18.7525 12.00578125 18.625 13.0390625 C18.06976325 16.91985456 17.09237033 20.60792879 16 24.375 C15.649375 25.59960938 15.29875 26.82421875 14.9375 28.0859375 C14 31 14 31 13 32 C11.33382885 32.04063832 9.66611905 32.042721 8 32 C6.84940471 27.7929539 5.70536736 23.58415141 4.5625 19.375 C4.23701172 18.18519531 3.91152344 16.99539063 3.57617188 15.76953125 C3.26357422 14.61582031 2.95097656 13.46210938 2.62890625 12.2734375 C2.34088135 11.21560059 2.05285645 10.15776367 1.75610352 9.06787109 C1.01404232 6.05697634 0.46788726 3.06436034 0 0 Z " fill="#EFF1F3" transform="translate(92,290)"/>
<path d="M0 0 C0.4375 2.0625 0.4375 2.0625 0 5 C-6.35700831 14.27063712 -18.96529963 21.427426 -28.625 26.8125 C-33.86307405 29.74525747 -37.27469287 32.54938575 -40 38 C-40.81478502 44.43813737 -39.87539017 49.72516338 -36 55 C-28.62456526 61.09275043 -21.23259991 61.60660972 -12 61 C-8.2718234 60.40006354 -4.85401688 59.36600723 -1.375 57.875 C1.51684278 56.80958424 3.94301506 56.85781465 7 57 C3.68728753 62.18511517 -0.3078802 64.15083291 -6 66 C-9.49994053 66.55097574 -12.89926189 66.62135807 -16.4375 66.5625 C-17.36183838 66.55226807 -18.28617676 66.54203613 -19.23852539 66.53149414 C-27.21210652 66.28265017 -32.82633492 64.78688146 -38.8125 59.35546875 C-43.32533402 54.54973444 -46.08363215 49.21749856 -46.4375 42.5625 C-46.18151797 36.2909402 -43.75650799 31.34888894 -39.1875 27.0625 C-35.02444372 23.74996059 -30.35648226 21.20593904 -25.77026367 18.53417969 C-18.84185672 14.43696514 -12.87432009 9.40491784 -6.83984375 4.1015625 C-2.15096831 0 -2.15096831 0 0 0 Z " fill="#34ADF4" transform="translate(266,208)"/>
<path d="M0 0 C6.45900024 3.90297551 10.24634995 8.66483109 12.62890625 15.8125 C13.37170923 22.66820618 12.73538007 28.16150169 8.62890625 33.8125 C4.26258377 38.73829556 -1.41886612 41.61443649 -7.08984375 44.80078125 C-11.37903263 47.43046253 -15.27274043 50.45354597 -19.18212891 53.61230469 C-23.17802833 56.8125 -23.17802833 56.8125 -25.37109375 56.8125 C-25.80859375 54.6875 -25.80859375 54.6875 -25.37109375 51.8125 C-20.29830469 46.49814956 -13.93025927 42.89544642 -7.76171875 38.984375 C1.02319063 33.83181763 1.02319063 33.83181763 6.62890625 25.8125 C7.26126089 20.59357311 7.2819181 16.28177665 5.12890625 11.4375 C0.02121466 6.07442383 -5.30327569 3.10442577 -12.69140625 2.57421875 C-20.58954645 2.42014825 -27.34993205 2.76239831 -34.37109375 6.8125 C-35.03109375 7.4725 -35.69109375 8.1325 -36.37109375 8.8125 C-38.99609375 8.9375 -38.99609375 8.9375 -41.37109375 8.8125 C-40.47147447 4.87666566 -38.90923974 3.23342949 -35.62109375 1.125 C-25.33816099 -5.08929204 -10.77043607 -5.39408989 0 0 Z " fill="#34ABF2" transform="translate(266.37109375,107.1875)"/>
<path d="M0 0 C8.04283901 4.70196742 12.24246208 11.79659707 16.59741211 19.77661133 C19.32594725 24.68876147 22.57588239 28.86087823 26.34765625 33.0390625 C27.71875 35.125 27.71875 35.125 27.43359375 37.3984375 C27.19769531 37.96820313 26.96179688 38.53796875 26.71875 39.125 C17.5703216 35.26456428 12.31991738 23.47230217 7.57592773 15.28320312 C7.13321533 14.53103516 6.69050293 13.77886719 6.234375 13.00390625 C5.84540039 12.3291626 5.45642578 11.65441895 5.05566406 10.95922852 C2.76339513 7.81426568 0.38459697 6.34694899 -3.28125 5.125 C-9.53855014 4.34700531 -14.37356671 4.8039108 -19.58984375 8.4921875 C-23.66686794 12.42797528 -26.0807666 18.34136505 -26.484375 23.9453125 C-26.59575199 31.79739057 -25.80099454 38.08551092 -22.28125 45.125 C-22.241258 47.12460012 -22.23778201 49.12547242 -22.28125 51.125 C-25.65659275 49.75221909 -26.9445235 48.5473063 -28.46875 45.25 C-28.79230469 44.57195312 -29.11585938 43.89390625 -29.44921875 43.1953125 C-32.80252454 34.85140606 -32.67548345 23.50648053 -30.4453125 14.8984375 C-27.42748595 8.35643765 -22.37683252 3.09008563 -15.86328125 -0.03515625 C-10.72063254 -1.7078786 -5.09642511 -1.95479319 0 0 Z " fill="#34ADF4" transform="translate(196.28125,160.875)"/>
<path d="M0 0 C0.66 0 1.32 0 2 0 C8.12251675 7.20180656 9.52755936 15.90500667 9.30859375 25.1015625 C8.33605945 34.23599857 5.0515883 42.0011028 -2 48 C-7.58196092 52.08492774 -13.19969442 53.03034933 -20 52 C-30.80751927 49.05957584 -35.78943238 37.94728353 -41.12890625 29.02734375 C-42.66837046 26.53656137 -44.27041416 24.24586542 -46.0625 21.9375 C-48 19 -48 19 -47.62109375 16.81640625 C-47.31365234 15.91728516 -47.31365234 15.91728516 -47 15 C-42.64968358 16.52361312 -40.62616059 19.857193 -38.125 23.5 C-37.68446289 24.12640381 -37.24392578 24.75280762 -36.79003906 25.39819336 C-34.264181 29.02876635 -31.9418335 32.71809362 -29.75 36.5625 C-27.23106953 40.80969665 -25.32621334 43.50410769 -21 46 C-15.08294152 47.10571295 -9.89590169 46.25444956 -4.6875 43.26171875 C0.08599345 39.69264841 1.88651853 34.66019748 3 29 C3.53840417 21.60815947 3.42696751 13.619906 -0.09375 6.91796875 C-1.32204732 4.31842572 -0.7516798 2.70604727 0 0 Z " fill="#34ACF2" transform="translate(326,167)"/>
<path d="M0 0 C3 1 3 1 5 3 C5.37125 2.505 5.7425 2.01 6.125 1.5 C8.81181653 -0.64945323 10.64114713 -0.34274009 14 0 C16.59219723 0.86406574 17.65435409 1.43878998 19.08984375 3.76953125 C20.70989771 7.7397064 20.44449546 11.78755074 20 16 C18.43337356 19.68157213 16.5823279 22.16042622 13 24 C10.27997316 24.24015592 7.74092557 24.13704628 5 24 C5 27.3 5 30.6 5 34 C3.35 34 1.7 34 0 34 C-0.02505615 33.21351074 -0.0501123 32.42702148 -0.07592773 31.61669922 C-0.19232866 28.03598506 -0.31485487 24.4555055 -0.4375 20.875 C-0.47681641 19.6375 -0.51613281 18.4 -0.55664062 17.125 C-0.59853516 15.92617188 -0.64042969 14.72734375 -0.68359375 13.4921875 C-0.72025146 12.39245605 -0.75690918 11.29272461 -0.79467773 10.15966797 C-0.99683479 7.04870884 -1.43289894 4.06355662 -2 1 C-1.34 0.67 -0.68 0.34 0 0 Z " fill="#F5F6F7" transform="translate(308,298)"/>
<path d="M0 0 C0.86625 0.00644531 1.7325 0.01289063 2.625 0.01953125 C5 0.1875 5 0.1875 8 1.1875 C8.06058594 2.18910156 8.12117188 3.19070313 8.18359375 4.22265625 C8.26808405 5.56511331 8.35272768 6.90756072 8.4375 8.25 C8.51871094 9.56097656 8.59992188 10.87195313 8.68359375 12.22265625 C8.97898249 15.92413238 9.43265388 19.52120448 10 23.1875 C8.68 23.5175 7.36 23.8475 6 24.1875 C5.34 23.1975 4.68 22.2075 4 21.1875 C3.67 21.6825 3.34 22.1775 3 22.6875 C0.38870758 24.64596931 -1.85722956 24.66273003 -5.0625 24.55078125 C-8.00263071 23.99950674 -9.26886176 22.541848 -11 20.1875 C-12.85379866 16.47990268 -12.45923868 12.23376515 -12 8.1875 C-9.07985072 2.54859105 -6.43435585 -0.10532428 0 0 Z " fill="#F3F5F6" transform="translate(173,297.8125)"/>
<path d="M0 0 C1.98 0 3.96 0 6 0 C6.33 3.63 6.66 7.26 7 11 C7.66 10.67 8.32 10.34 9 10 C15.09510323 9.43563859 15.09510323 9.43563859 18.2109375 11.37890625 C20.9974676 15.46135537 20.4253483 19.43466604 20.25 24.25 C20.23195313 25.18585938 20.21390625 26.12171875 20.1953125 27.0859375 C20.14825673 29.39167015 20.08253713 31.69530945 20 34 C18.02 34 16.04 34 14 34 C13.67 27.73 13.34 21.46 13 15 C11.35 15.33 9.7 15.66 8 16 C6.414131 19.171738 6.62133555 22.63513822 6.4375 26.125 C6.39431641 26.87910156 6.35113281 27.63320313 6.30664062 28.41015625 C6.2005168 30.27321888 6.09974999 32.13658524 6 34 C4.02 34 2.04 34 0 34 C0 22.78 0 11.56 0 0 Z " fill="#EBEDF0" transform="translate(335,288)"/>
<path d="M0 0 C1.98 0 3.96 0 6 0 C6.33 3.63 6.66 7.26 7 11 C7.66 10.67 8.32 10.34 9 10 C15.09510323 9.43563859 15.09510323 9.43563859 18.2109375 11.37890625 C20.9974676 15.46135537 20.4253483 19.43466604 20.25 24.25 C20.23195312 25.18585938 20.21390625 26.12171875 20.1953125 27.0859375 C20.14825673 29.39167015 20.08253713 31.69530945 20 34 C18.02 34 16.04 34 14 34 C13.67 27.73 13.34 21.46 13 15 C11.35 15.33 9.7 15.66 8 16 C6.414131 19.171738 6.62133555 22.63513822 6.4375 26.125 C6.39431641 26.87910156 6.35113281 27.63320313 6.30664062 28.41015625 C6.2005168 30.27321888 6.09974999 32.13658524 6 34 C4.02 34 2.04 34 0 34 C0 22.78 0 11.56 0 0 Z " fill="#EBEDF0" transform="translate(209,288)"/>
<path d="M0 0 C2.94147968 1.93707199 3.75720173 3.05308675 4.625 6.4375 C3.67308499 10.34035154 1.17217845 11.71603151 -2 14 C-4.70879335 15.35439668 -7.00933268 15.06501451 -10 15 C-9.34 16.32 -8.68 17.64 -8 19 C-4.37 19 -0.74 19 3 19 C3 20.32 3 21.64 3 23 C-1.34249334 24.44749778 -5.46668956 24.65794458 -10 24 C-13.34625024 21.47323961 -14.67977847 19.96066458 -16 16 C-16.5862269 9.90324025 -15.36672614 6.90580095 -12 2 C-7.98344566 -0.67770289 -4.71928419 -0.69000365 0 0 Z " fill="#EDEFF2" transform="translate(377,298)"/>
<path d="M0 0 C2.94147968 1.93707199 3.75720173 3.05308675 4.625 6.4375 C3.67308499 10.34035154 1.17217845 11.71603151 -2 14 C-4.70879335 15.35439668 -7.00933268 15.06501451 -10 15 C-9.34 16.32 -8.68 17.64 -8 19 C-4.37 19 -0.74 19 3 19 C3 20.32 3 21.64 3 23 C-1.34249334 24.44749778 -5.46668956 24.65794458 -10 24 C-13.34625024 21.47323961 -14.67977847 19.96066458 -16 16 C-16.5862269 9.90324025 -15.36672614 6.90580095 -12 2 C-7.98344566 -0.67770289 -4.71928419 -0.69000365 0 0 Z " fill="#EDEFF2" transform="translate(251,298)"/>
<path d="M0 0 C0.7734375 -0.01675781 1.546875 -0.03351563 2.34375 -0.05078125 C5.03573177 0.40275916 5.89306885 1.13309963 7.5 3.3125 C8 6.75 8 6.75 7.5 10.3125 C4.31294073 13.49955927 1.90087305 15.28448254 -2.625 15.375 C-4.048125 15.3440625 -4.048125 15.3440625 -5.5 15.3125 C-4.84 16.6325 -4.18 17.9525 -3.5 19.3125 C-0.2 19.3125 3.1 19.3125 6.5 19.3125 C6.83 20.6325 7.16 21.9525 7.5 23.3125 C3.26743039 25.4287848 -1.91305826 24.92938564 -6.5 24.3125 C-9.2991167 22.85833876 -10.44512161 21.26149705 -11.5 18.3125 C-12.40763193 13.16647679 -12.10069273 9.47245837 -9.6875 4.8125 C-6.61643849 1.30271542 -4.59038937 0.02295195 0 0 Z " fill="#EDEFF2" transform="translate(147.5,297.6875)"/>
<path d="M0 0 C2.34375 1.0234375 2.34375 1.0234375 4 2 C3.34 3.32 2.68 4.64 2 6 C-1.3 5.67 -4.6 5.34 -8 5 C-8 6.65 -8 8.3 -8 10 C-5.88326554 11.84655792 -5.88326554 11.84655792 -3.125 13.1875 C1.90092879 15.90092879 1.90092879 15.90092879 4 18 C4.62954622 21.08114449 4.58530104 23.91386725 4 27 C1.289726 30.494827 -0.14239793 31.72544875 -4.484375 32.3671875 C-8.92308623 32.48537804 -12.09986014 32.23763785 -16 30 C-15.67 28.35 -15.34 26.7 -15 25 C-14.113125 25.33 -13.22625 25.66 -12.3125 26 C-9.27959895 26.91559277 -7.12865051 27.26817004 -4 27 C-2.75381705 25.95060486 -2.75381705 25.95060486 -2.6328125 23.6328125 C-2.71660255 20.8292095 -2.71660255 20.8292095 -5.1171875 19.3046875 C-6.02726562 18.83289063 -6.93734375 18.36109375 -7.875 17.875 C-12.82137628 15.26793558 -12.82137628 15.26793558 -15 12 C-15.64491363 5.22840691 -15.64491363 5.22840691 -13.6875 1.5 C-9.38042777 -0.90394729 -4.82173466 -0.60980762 0 0 Z " fill="#F4F5F7" transform="translate(296,290)"/>
<path d="M0 0 C2.5625 1.125 2.5625 1.125 4 3 C4.5 5.9375 4.5 5.9375 4 9 C1.76526231 11.87323418 -0.57533721 13.75466808 -4 15 C-6.75 15.125 -6.75 15.125 -9 15 C-8.34 16.32 -7.68 17.64 -7 19 C-3.7 19 -0.4 19 3 19 C3 20.32 3 21.64 3 23 C-1.32302359 24.44100786 -5.48205584 24.55548494 -10 24 C-12.57637471 22.11484777 -13.59667428 20.80665143 -15 18 C-15.72402019 12.47361805 -15.99663293 7.44193887 -12.5625 2.8125 C-8.81711301 -0.89730137 -4.99996652 -1.02466107 0 0 Z " fill="#EEF0F2" transform="translate(421,298)"/>
<path d="M0 0 C1.32 0 2.64 0 4 0 C4 1.98 4 3.96 4 6 C5.98 6 7.96 6 10 6 C9.67 7.32 9.34 8.64 9 10 C7.35 10 5.7 10 4 10 C4 15.28 4 20.56 4 26 C5.98 26 7.96 26 10 26 C9.67 27.32 9.34 28.64 9 30 C1.47017427 30.3703193 1.47017427 30.3703193 -0.609375 28.73242188 C-2.30191723 26.62387558 -2.35318217 25.65774276 -2.29296875 22.98828125 C-2.28330078 22.23095703 -2.27363281 21.47363281 -2.26367188 20.69335938 C-2.23853516 19.90767578 -2.21339844 19.12199219 -2.1875 18.3125 C-2.16719727 17.11657227 -2.16719727 17.11657227 -2.14648438 15.89648438 C-2.11117089 13.93070033 -2.05736447 11.96526418 -2 10 C-3.32 10 -4.64 10 -6 10 C-6 8.68 -6 7.36 -6 6 C-4.35 6 -2.7 6 -1 6 C-1.020625 5.195625 -1.04125 4.39125 -1.0625 3.5625 C-1 1 -1 1 0 0 Z " fill="#EBEDF0" transform="translate(193,292)"/>
<path d="M0 0 C1.33998047 0.06960938 1.33998047 0.06960938 2.70703125 0.140625 C3.60808594 0.17671875 4.50914062 0.2128125 5.4375 0.25 C6.46810547 0.31960938 6.46810547 0.31960938 7.51953125 0.390625 C7.60071076 2.80797042 7.66010051 5.22257449 7.70703125 7.640625 C7.74473633 8.66349609 7.74473633 8.66349609 7.78320312 9.70703125 C7.82848364 12.81629342 7.68459378 15.0646265 6.26953125 17.859375 C3.21739718 20.52999231 0.42838529 19.6469433 -3.48046875 19.390625 C-3.48046875 18.400625 -3.48046875 17.410625 -3.48046875 16.390625 C-1.50046875 16.720625 0.47953125 17.050625 2.51953125 17.390625 C3.17953125 16.070625 3.83953125 14.750625 4.51953125 13.390625 C3.42640625 13.6175 2.33328125 13.844375 1.20703125 14.078125 C-2.48046875 14.390625 -2.48046875 14.390625 -4.41796875 13.390625 C-6.06920997 10.28240624 -5.84409891 7.84511149 -5.48046875 4.390625 C-3.92602231 1.52983595 -3.27486246 0.51572637 0 0 Z " fill="#35ADF4" transform="translate(411.48046875,360.609375)"/>
<path d="M0 0 C1.32 0.99 2.64 1.98 4 3 C4.37125 2.505 4.7425 2.01 5.125 1.5 C7.74694393 -0.59755514 9.73842472 -0.21743835 13 0 C12.67 1.65 12.34 3.3 12 5 C10.02 5.66 8.04 6.32 6 7 C5.67 12.61 5.34 18.22 5 24 C3.02 24 1.04 24 -1 24 C-1.06058594 22.74703125 -1.12117188 21.4940625 -1.18359375 20.203125 C-1.26802256 18.55207276 -1.35266939 16.90103165 -1.4375 15.25 C-1.47681641 14.425 -1.51613281 13.6 -1.55664062 12.75 C-1.59853516 11.95078125 -1.64042969 11.1515625 -1.68359375 10.328125 C-1.72025146 9.5949707 -1.75690918 8.86181641 -1.79467773 8.10644531 C-2.00114785 5.98822395 -2.43132086 4.0480544 -3 2 C-2.01 1.34 -1.02 0.68 0 0 Z " fill="#EDEFF1" transform="translate(389,298)"/>
<path d="M0 0 C0.99 0.33 1.98 0.66 3 1 C3 1.66 3 2.32 3 3 C3.721875 2.505 4.44375 2.01 5.1875 1.5 C8.14848659 -0.07919285 9.71253029 -0.28178312 13 0 C13 1.98 13 3.96 13 6 C12.030625 6.12375 11.06125 6.2475 10.0625 6.375 C8.5465625 6.684375 8.5465625 6.684375 7 7 C5.47893366 10.04213267 5.62570662 13.28047572 5.4375 16.625 C5.39431641 17.33140625 5.35113281 18.0378125 5.30664062 18.765625 C5.20055249 20.51018537 5.09977111 22.25506697 5 24 C3.35 24 1.7 24 0 24 C-0.06058594 22.84242188 -0.12117188 21.68484375 -0.18359375 20.4921875 C-0.26805502 18.95311543 -0.35270018 17.41405345 -0.4375 15.875 C-0.47681641 15.11445313 -0.51613281 14.35390625 -0.55664062 13.5703125 C-0.79509002 9.31490797 -1.20230237 5.19629174 -2 1 C-1.34 0.67 -0.68 0.34 0 0 Z " fill="#F1F3F5" transform="translate(262,298)"/>
<path d="M0 0 C0.66 0 1.32 0 2 0 C2.33 1.98 2.66 3.96 3 6 C3.33 5.67 3.66 5.34 4 5 C7.2488448 4.56096692 8.59797415 4.71749535 11.3125 6.625 C13.49094235 9.6909559 13.53839012 11.30818203 13 15 C11.875 17.375 11.875 17.375 10 19 C7.0625 19.25 7.0625 19.25 4 19 C2.68 19 1.36 19 0 19 C0 12.73 0 6.46 0 0 Z " fill="#33A9EF" transform="translate(153,356)"/>
<path d="M0 0 C3.375 0.9375 3.375 0.9375 5.375 3.9375 C5.91670249 10.00456793 5.91670249 10.00456793 4.25 12.875 C1.43987736 14.46740283 -0.45264724 14.39069325 -3.625 13.9375 C-6 12.3125 -6 12.3125 -7.625 9.9375 C-8.23475382 6.27897708 -8.07043026 4.63237121 -6.0625 1.5 C-3.625 -0.0625 -3.625 -0.0625 0 0 Z " fill="#30A0E4" transform="translate(248.625,361.0625)"/>
<path d="M0 0 C3.37013879 0.67402776 4.51677007 1.7087875 6.5 4.5 C7.11195145 8.1717087 6.98706506 9.78813568 4.875 12.875 C1.82214079 14.96379841 0.13031776 15.04068562 -3.5 14.5 C-5.375 13.4375 -5.375 13.4375 -6.5 11.5 C-7.004958 7.5324729 -7.11854451 5.39345318 -4.8125 2.0625 C-2.5 0.5 -2.5 0.5 0 0 Z " fill="#30A1E5" transform="translate(137.5,360.5)"/>
<path d="M0 0 C2.375 1 2.375 1 4 2 C4 2.66 4 3.32 4 4 C3.09507813 3.82210938 3.09507813 3.82210938 2.171875 3.640625 C-2.92179857 2.74804486 -2.92179857 2.74804486 -7.625 4.5 C-9.56175004 8.02136371 -8.98967085 10.18269814 -8 14 C-6.23863645 16.18331689 -6.23863645 16.18331689 -4.0546875 16.1953125 C-1.02734375 16.09765625 -1.02734375 16.09765625 2 16 C2 14.68 2 13.36 2 12 C0.02 12 -1.96 12 -4 12 C-4 11.01 -4 10.02 -4 9 C-1.03 9 1.94 9 5 9 C5.48137536 15.3782235 5.48137536 15.3782235 3.5 17.9375 C-0.0510944 19.44671512 -3.25370062 19.7640967 -7 19 C-10.14249107 16.97047452 -11.63745366 15.53044369 -12.51171875 11.83984375 C-12.75802839 8.56118881 -12.73398271 6.08469117 -10.85546875 3.30859375 C-7.4078555 0.11568543 -4.55868861 -0.69371348 0 0 Z " fill="#32A7EC" transform="translate(105,356)"/>
<path d="M0 0 C1.29376578 2.58753156 1.16832397 4.54958985 1.1875 7.4375 C1.20167969 8.40558594 1.21585937 9.37367188 1.23046875 10.37109375 C1 13 1 13 -1 16 C-4.625 16.1875 -4.625 16.1875 -8 16 C-8.62208259 6.13307899 -8.62208259 6.13307899 -6.25 1.8125 C-4 0 -4 0 0 0 Z " fill="#0B254A" transform="translate(321,302)"/>
<path d="M0 0 C0.46155734 9.76108294 0.46155734 9.76108294 -1.1875 14.1875 C-3 16 -3 16 -5.6875 16.3125 C-6.450625 16.209375 -7.21375 16.10625 -8 16 C-9.29004296 13.41991408 -9.20410224 11.44258426 -9.25 8.5625 C-9.27578125 7.59441406 -9.3015625 6.62632812 -9.328125 5.62890625 C-9 3 -9 3 -7.68359375 1.1640625 C-5.17064091 -0.57343157 -2.96761673 -0.19784112 0 0 Z " fill="#072247" transform="translate(176,302)"/>
<path d="M0 0 C3.01086208 0.45162931 3.70776767 0.95264564 5.5 3.375 C5.79296875 6.07421875 5.79296875 6.07421875 5.6875 9.0625 C5.66042969 10.05636719 5.63335937 11.05023438 5.60546875 12.07421875 C5.57066406 12.83347656 5.53585938 13.59273438 5.5 14.375 C3.87536158 14.42895478 2.25021459 14.46777195 0.625 14.5 C-0.27992188 14.52320313 -1.18484375 14.54640625 -2.1171875 14.5703125 C-4.5 14.375 -4.5 14.375 -6.5 12.375 C-5.94444444 7.81944444 -5.94444444 7.81944444 -4.5 6.375 C-2.16702567 6.33407063 0.16705225 6.33258277 2.5 6.375 C2.17 5.385 1.84 4.395 1.5 3.375 C-0.81 3.375 -3.12 3.375 -5.5 3.375 C-3.72510401 1.13302612 -2.87824511 0.43173677 0 0 Z " fill="#2C97D9" transform="translate(180.5,360.625)"/>
<path d="M0 0 C3.375 0.9375 3.375 0.9375 5.375 3.9375 C5.375 5.2575 5.375 6.5775 5.375 7.9375 C2.075 7.9375 -1.225 7.9375 -4.625 7.9375 C-4.295 8.9275 -3.965 9.9175 -3.625 10.9375 C-0.985 10.9375 1.655 10.9375 4.375 10.9375 C4.045 11.9275 3.715 12.9175 3.375 13.9375 C-2.90086207 14.42025862 -2.90086207 14.42025862 -6.0625 12.3125 C-8.09661336 9.22064769 -8.23105429 7.57382575 -7.625 3.9375 C-5.31085172 0.32742869 -4.32918251 -0.07464108 0 0 Z " fill="#2C97D9" transform="translate(285.625,361.0625)"/>
<path d="M0 0 C3 -0.3125 3 -0.3125 6 0 C8 2 8 2 8.1953125 4.8203125 C8.16050781 6.45613281 8.16050781 6.45613281 8.125 8.125 C8.10695313 9.22070312 8.08890625 10.31640625 8.0703125 11.4453125 C8.04710937 12.28835938 8.02390625 13.13140625 8 14 C6.54207116 14.05399736 5.08357288 14.09279177 3.625 14.125 C2.81289063 14.14820313 2.00078125 14.17140625 1.1640625 14.1953125 C-1 14 -1 14 -3 12 C-2.67028521 8.70285207 -2.3773161 7.3773161 0 5 C3.125 5.375 3.125 5.375 6 6 C5.67 5.01 5.34 4.02 5 3 C2.69 3 0.38 3 -2 3 C-1.34 2.01 -0.68 1.02 0 0 Z " fill="#2F9FE2" transform="translate(322,361)"/>
<path d="M0 0 C0.99386719 0.00902344 1.98773438 0.01804687 3.01171875 0.02734375 C4.15060547 0.04474609 4.15060547 0.04474609 5.3125 0.0625 C5.3125 1.0525 5.3125 2.0425 5.3125 3.0625 C4.44367188 3.30484375 3.57484375 3.5471875 2.6796875 3.796875 C-4.6238026 5.73620002 -4.6238026 5.73620002 -11.1875 9.3125 C-13.98300788 11.26935552 -15.35095681 11.45503449 -18.6875 11.0625 C-17.76448955 7.02432927 -16.13535169 5.44309749 -12.75 3.3125 C-8.386788 0.73535048 -5.06940267 -0.05964003 0 0 Z " fill="#36B2FA" transform="translate(243.6875,104.9375)"/>
<path d="M0 0 C3.10132978 0.31592494 4.58779192 0.54964174 6.73046875 2.890625 C7.21128906 3.66921875 7.69210937 4.4478125 8.1875 5.25 C8.67605469 6.01828125 9.16460937 6.7865625 9.66796875 7.578125 C12.18759071 12.15925584 13.25178192 15.55105045 13.125 20.8125 C13.10695313 21.78832031 13.08890625 22.76414063 13.0703125 23.76953125 C13.03550781 24.87361328 13.03550781 24.87361328 13 26 C12.67 26 12.34 26 12 26 C11.67 23.03 11.34 20.06 11 17 C10.34 19.31 9.68 21.62 9 24 C8.67 24 8.34 24 8 24 C7.92523438 23.2265625 7.85046875 22.453125 7.7734375 21.65625 C6.93498402 15.0143832 5.80720494 10.69876902 1.2421875 5.71875 C0 4 0 4 0 0 Z " fill="#2B94D6" transform="translate(294,138)"/>
<path d="M0 0 C2.125 0.375 2.125 0.375 4 1 C1.09746162 8.12441239 -6.37730859 13.06330144 -12 18 C-12.33 17.01 -12.66 16.02 -13 15 C-13.99 14.67 -14.98 14.34 -16 14 C-15.01257813 13.15695313 -14.02515625 12.31390625 -13.0078125 11.4453125 C-11.71350438 10.33858527 -10.41923559 9.23181204 -9.125 8.125 C-8.47402344 7.56941406 -7.82304687 7.01382813 -7.15234375 6.44140625 C-6.52714844 5.90644531 -5.90195312 5.37148437 -5.2578125 4.8203125 C-4.6817627 4.32805176 -4.10571289 3.83579102 -3.51220703 3.32861328 C-2.30047746 2.26399715 -1.14054725 1.14054725 0 0 Z " fill="#2B94D6" transform="translate(275,210)"/>
<path d="M0 0 C0.66 0 1.32 0 2 0 C7.6245944 7.06140668 8.17110567 13.27361098 8 22 C6.68 22 5.36 22 4 22 C3.80664062 21.10796875 3.61328125 20.2159375 3.4140625 19.296875 C3.15367187 18.12640625 2.89328125 16.9559375 2.625 15.75 C2.36976563 14.58984375 2.11453125 13.4296875 1.8515625 12.234375 C1.1425439 9.0931377 1.1425439 9.0931377 -0.125 6.75 C-1.36745191 4.26509618 -0.7227922 2.60205194 0 0 Z " fill="#36B1F9" transform="translate(326,167)"/>
<path d="M0 0 C1.32 0 2.64 0 4 0 C4.19335938 0.81984375 4.38671875 1.6396875 4.5859375 2.484375 C4.84632813 3.56203125 5.10671875 4.6396875 5.375 5.75 C5.63023437 6.81734375 5.88546875 7.8846875 6.1484375 8.984375 C6.87721111 11.9251539 6.87721111 11.9251539 8.09375 14.1875 C9.39726333 16.79452665 9.13021221 19.13533128 9 22 C5.62465725 20.62721909 4.3367265 19.4223063 2.8125 16.125 C2.48894531 15.44695312 2.16539062 14.76890625 1.83203125 14.0703125 C-0.10132787 9.25960672 -0.08560336 5.1362014 0 0 Z " fill="#36B2FA" transform="translate(165,190)"/>
<path d="M0 0 C1.12174951 1.12174951 2.24177169 2.24525543 3.35546875 3.375 C4.58322395 4.58817378 5.84103002 5.77107373 7.11328125 6.9375 C8.20189453 7.9584375 8.20189453 7.9584375 9.3125 9 C10.00988281 9.639375 10.70726562 10.27875 11.42578125 10.9375 C13.35967876 13.47124166 13.31886683 14.88699505 13 18 C9.71590826 17.42683305 8.19511813 16.53366486 5.984375 14.05859375 C5.45585937 13.47529297 4.92734375 12.89199219 4.3828125 12.29101562 C3.84398437 11.67935547 3.30515625 11.06769531 2.75 10.4375 C2.19570312 9.82197266 1.64140625 9.20644531 1.0703125 8.57226562 C-0.29406545 7.05498325 -1.64805855 5.52837406 -3 4 C-2.67 3.34 -2.34 2.68 -2 2 C-1.34 2 -0.68 2 0 2 C0 1.34 0 0.68 0 0 Z " fill="#288ACA" transform="translate(214,199)"/>
<path d="M0 0 C3.96 0 7.92 0 12 0 C12 0.66 12 1.32 12 2 C8.7 2 5.4 2 2 2 C2 3.98 2 5.96 2 8 C5.3 8 8.6 8 12 8 C12 8.99 12 9.98 12 11 C8.7 11 5.4 11 2 11 C2 13.64 2 16.28 2 19 C1.34 19 0.68 19 0 19 C0 12.73 0 6.46 0 0 Z " fill="#2F9EE2" transform="translate(221,356)"/>
<path d="M0 0 C4.62905589 0.6555634 6.82175608 3.70001518 9.75 7.0625 C10.25660156 7.63033203 10.76320313 8.19816406 11.28515625 8.78320312 C12.53113136 10.1819865 13.76660973 11.59010733 15 13 C14.34 13.66 13.68 14.32 13 15 C12.67 14.67 12.34 14.34 12 14 C11.34 14.66 10.68 15.32 10 16 C8.157383 14.07063642 6.32604548 12.13244033 4.5 10.1875 C3.71302734 9.36668945 3.71302734 9.36668945 2.91015625 8.52929688 C-1 4.33984375 -1 4.33984375 -1 1 C-0.67 0.67 -0.34 0.34 0 0 Z " fill="#1F73AD" transform="translate(277,153)"/>
<path d="M0 0 C4.41459584 0.40226457 6.53697056 3.40387125 9.25 6.5625 C9.70890625 7.08263672 10.1678125 7.60277344 10.640625 8.13867188 C11.7682143 9.41895555 12.88517315 10.70858798 14 12 C12.68 13.32 11.36 14.64 10 16 C8.12983659 14.09692171 6.27975833 12.17977121 4.4375 10.25 C3.90447266 9.71117187 3.37144531 9.17234375 2.82226562 8.6171875 C1.30859375 7.015625 1.30859375 7.015625 -1 4 C-0.64428711 1.81152344 -0.64428711 1.81152344 0 0 Z " fill="#237CB8" transform="translate(272,161)"/>
<path d="M0 0 C4.41459584 0.40226457 6.53697056 3.40387125 9.25 6.5625 C9.70890625 7.08263672 10.1678125 7.60277344 10.640625 8.13867188 C11.7682143 9.41895555 12.88517315 10.70858798 14 12 C12.68 13.32 11.36 14.64 10 16 C8.12983659 14.09692171 6.27975833 12.17977121 4.4375 10.25 C3.90447266 9.71117187 3.37144531 9.17234375 2.82226562 8.6171875 C1.30859375 7.015625 1.30859375 7.015625 -1 4 C-0.64428711 1.81152344 -0.64428711 1.81152344 0 0 Z " fill="#1D6DA5" transform="translate(267,169)"/>
<path d="M0 0 C1.60875 -0.061875 3.2175 -0.12375 4.875 -0.1875 C5.77992188 -0.22230469 6.68484375 -0.25710938 7.6171875 -0.29296875 C8.79667969 -0.14794922 8.79667969 -0.14794922 10 0 C12.28062828 3.42094242 12.21925007 4.68187222 12.125 8.6875 C12.10695313 9.68136719 12.08890625 10.67523438 12.0703125 11.69921875 C12.03550781 12.83810547 12.03550781 12.83810547 12 14 C11.01 14 10.02 14 9 14 C8.67 10.37 8.34 6.74 8 3 C6.35 3.33 4.7 3.66 3 4 C2.67 7.3 2.34 10.6 2 14 C1.34 14 0.68 14 0 14 C0 9.38 0 4.76 0 0 Z " fill="#2B92D3" transform="translate(385,361)"/>
<path d="M0 0 C0.4375 2.0625 0.4375 2.0625 0 5 C-3.54893175 9.60846789 -8.07231896 12.99531644 -13 16 C-13 14.68 -13 13.36 -13 12 C-13.66 11.67 -14.32 11.34 -15 11 C-12.87996003 9.16064138 -10.75442773 7.32843267 -8.625 5.5 C-8.02171875 4.97535156 -7.4184375 4.45070312 -6.796875 3.91015625 C-2.2265625 0 -2.2265625 0 0 0 Z " fill="#2789C8" transform="translate(266,208)"/>
<path d="M0 0 C4.06809929 0.52537408 6.17603456 1.61400461 9.1875 4.375 C9.86167969 4.98085937 10.53585937 5.58671875 11.23046875 6.2109375 C13 8 13 8 15 11 C13.68 11.99 12.36 12.98 11 14 C10.525625 13.29875 10.05125 12.5975 9.5625 11.875 C6.19326567 8.09488344 2.27659282 5.65916349 -2 3 C-1.34 2.01 -0.68 1.02 0 0 Z " fill="#104879" transform="translate(295,127)"/>
<path d="M0 0 C0.33 0.66 0.66 1.32 1 2 C3.02463255 2.65213292 3.02463255 2.65213292 5 3 C4.278125 3.70125 3.55625 4.4025 2.8125 5.125 C0.83195528 7.07207072 -0.83768237 9.09079929 -2.5 11.3125 C-5 14 -5 14 -7.8125 14.375 C-8.534375 14.25125 -9.25625 14.1275 -10 14 C-8.38798165 8.2683792 -4.12110332 4.12110332 0 0 Z " fill="#196298" transform="translate(197,129)"/>
<path d="M0 0 C1.7936743 1.1217963 3.5848773 2.24754483 5.375 3.375 C6.37273437 4.00148437 7.37046875 4.62796875 8.3984375 5.2734375 C11 7 11 7 13 9 C12.01 10.485 12.01 10.485 11 12 C5.6410091 11.66506307 1.89256144 8.42872819 -2 5 C-2.33 4.34 -2.66 3.68 -3 3 C-2.01 2.01 -1.02 1.02 0 0 Z " fill="#072F59" transform="translate(195,241)"/>
<path d="M0 0 C4.55555556 0.55555556 4.55555556 0.55555556 6 2 C6.1875 4.9375 6.1875 4.9375 6 8 C4 10 4 10 1.5 10.3125 C0.2625 10.1578125 0.2625 10.1578125 -1 10 C-3 7 -3 7 -2.75 4.4375 C-2 2 -2 2 0 0 Z " fill="#03254D" transform="translate(246,363)"/>
<path d="M0 0 C3.29714793 0.32971479 4.6226839 0.6226839 7 3 C6.43181818 8.56818182 6.43181818 8.56818182 5 10 C2.5625 10.1875 2.5625 10.1875 0 10 C-2 8 -2 8 -2.25 5 C-2 2 -2 2 0 0 Z " fill="#03254D" transform="translate(135,363)"/>
<path d="M0 0 C0.99 0.99 1.98 1.98 3 3 C0.01383286 7.01984039 -2.94116496 10.10083211 -7 13 C-9.875 13.3125 -9.875 13.3125 -12 13 C-10.61536056 9.87250593 -9.00477577 7.7595015 -6.5625 5.375 C-5.96566406 4.78460938 -5.36882812 4.19421875 -4.75390625 3.5859375 C-3 2 -3 2 0 0 Z " fill="#1F72AC" transform="translate(227,147)"/>
<path d="M0 0 C4.55555556 0.55555556 4.55555556 0.55555556 6 2 C6.125 5.5 6.125 5.5 6 9 C5 10 5 10 2 10.125 C-1 10 -1 10 -2 9 C-2.1875 5.5625 -2.1875 5.5625 -2 2 C-1.34 1.34 -0.68 0.68 0 0 Z " fill="#03244C" transform="translate(157,363)"/>
<path d="M0 0 C0.12375 0.639375 0.2475 1.27875 0.375 1.9375 C0.58125 2.618125 0.7875 3.29875 1 4 C1.66 4.33 2.32 4.66 3 5 C-2.94 10.445 -2.94 10.445 -9 16 C-9.66 14.68 -10.32 13.36 -11 12 C-7.49102731 7.81576108 -3.91939465 3.80411834 0 0 Z " fill="#247FBB" transform="translate(233,153)"/>
<path d="M0 0 C2.00720923 0.28674418 4.0085944 0.61866701 6 1 C6.09765625 7.15234375 6.09765625 7.15234375 6 9 C5 10 5 10 2.5625 10.1875 C0 10 0 10 -2 8 C-1.42307692 1.42307692 -1.42307692 1.42307692 0 0 Z " fill="#02234A" transform="translate(410,363)"/>
<path d="M0 0 C4.69564393 3.31457218 7.72469104 7.36279281 11 12 C9.02 12.99 9.02 12.99 7 14 C3.7 10.7 0.4 7.4 -3 4 C-2.01 2.68 -1.02 1.36 0 0 Z " fill="#145486" transform="translate(224,197)"/>
<path d="M0 0 C0.99 0.103125 1.98 0.20625 3 0.3125 C3.66 1.3025 4.32 2.2925 5 3.3125 C2.69 3.3125 0.38 3.3125 -2 3.3125 C-2 3.9725 -2 4.6325 -2 5.3125 C1.465 6.7975 1.465 6.7975 5 8.3125 C4.125 13.1875 4.125 13.1875 3 14.3125 C0.66702567 14.35342937 -1.66705225 14.35491723 -4 14.3125 C-4.33 13.3225 -4.66 12.3325 -5 11.3125 C-2.36 11.6425 0.28 11.9725 3 12.3125 C3 11.3225 3 10.3325 3 9.3125 C0.69 8.6525 -1.62 7.9925 -4 7.3125 C-4.625 4.9375 -4.625 4.9375 -5 2.3125 C-3 0.3125 -3 0.3125 0 0 Z " fill="#2F9EE2" transform="translate(345,360.6875)"/>
<path d="M0 0 C0 1.32 0 2.64 0 4 C0.99 4.33 1.98 4.66 3 5 C1.7625 5.3403125 1.7625 5.3403125 0.5 5.6875 C-3.73136618 7.27426232 -7.25171013 9.50748237 -11 12 C-11.33 10.35 -11.66 8.7 -12 7 C-3.89473684 0 -3.89473684 0 0 0 Z " fill="#2583C0" transform="translate(212,133)"/>
<path d="M0 0 C2.65391468 2.47698704 4.81169744 4.53411752 6 8 C6.0777346 10.33203812 6.08967728 12.66839059 6 15 C4.68 15 3.36 15 2 15 C-1.54076539 5.32612313 -1.54076539 5.32612313 -1 1 C-0.67 0.67 -0.34 0.34 0 0 Z " fill="#34ADF4" transform="translate(320,174)"/>
<path d="M0 0 C0 1.32 0 2.64 0 4 C-9.41002278 7.62870159 -9.41002278 7.62870159 -14 6 C-13.0114653 3.30399627 -12.34022364 2.19441351 -9.8125 0.75 C-6.45769347 -0.14461507 -3.45702902 -0.13556977 0 0 Z " fill="#34ABF1" transform="translate(249,113)"/>
<path d="M0 0 C0.33 0 0.66 0 1 0 C1.5 3.0625 1.5 3.0625 1 7 C-1.38823271 9.71294856 -4.09251712 11.86481726 -7 14 C-8.32 12.68 -9.64 11.36 -11 10 C-10.071875 9.4225 -9.14375 8.845 -8.1875 8.25 C-5.36854553 6.26014978 -3.95437133 4.73611987 -2 2 C-1.34 2 -0.68 2 0 2 C0 1.34 0 0.68 0 0 Z " fill="#1D6DA5" transform="translate(301,229)"/>
<path d="M0 0 C1.0625 2.5 1.0625 2.5 1 6 C-1.65688338 9.10155006 -4.65643147 11.66009592 -8 14 C-8.66 14 -9.32 14 -10 14 C-10.8046875 12.328125 -10.8046875 12.328125 -11 10 C-8.9453125 7.421875 -8.9453125 7.421875 -6.125 4.75 C-5.19945312 3.85796875 -4.27390625 2.9659375 -3.3203125 2.046875 C-1 0 -1 0 0 0 Z " fill="#165A8E" transform="translate(241,159)"/>
<path d="M0 0 C-0.95077161 2.85231484 -1.68314218 3.83323272 -4.375 5.25 C-9.58815155 6.32858308 -14.69625488 6.15447801 -20 6 C-20 5.67 -20 5.34 -20 5 C-17.03 5 -14.06 5 -11 5 C-11 4.01 -11 3.02 -11 2 C-11.66 1.67 -12.32 1.34 -13 1 C-11.58622218 0.63447197 -10.16879424 0.28304505 -8.75 -0.0625 C-7.96109375 -0.25972656 -7.1721875 -0.45695313 -6.359375 -0.66015625 C-3.89605178 -1.01497267 -2.34395868 -0.76877544 0 0 Z " fill="#298DCD" transform="translate(293,241)"/>
<path d="M0 0 C0.66 0.99 1.32 1.98 2 3 C0.865625 2.979375 -0.26875 2.95875 -1.4375 2.9375 C-4.81575674 2.58422523 -4.81575674 2.58422523 -6 4 C-6.16666667 7 -6.16666667 7 -6 10 C-4.81575674 11.41577477 -4.81575674 11.41577477 -1.4375 11.0625 C0.2640625 11.0315625 0.2640625 11.0315625 2 11 C1.67 11.99 1.34 12.98 1 14 C-5.34507042 14.35915493 -5.34507042 14.35915493 -7.9375 12.9375 C-9.63902633 9.8347167 -9.42519574 7.46230815 -9 4 C-6.47615247 0.35444246 -4.42091097 -0.81437834 0 0 Z " fill="#31A4E9" transform="translate(309,361)"/>
<path d="M0 0 C1.15518918 0.90484792 2.29885406 1.8244206 3.4375 2.75 C4.07558594 3.26046875 4.71367187 3.7709375 5.37109375 4.296875 C7.18810554 6.19667629 7.60423197 7.43586908 8 10 C6.234375 10.71484375 6.234375 10.71484375 4 11 C2.078125 9.56640625 2.078125 9.56640625 0.25 7.5625 C-0.36359375 6.90378906 -0.9771875 6.24507812 -1.609375 5.56640625 C-2.06828125 5.04949219 -2.5271875 4.53257812 -3 4 C-2.01 2.68 -1.02 1.36 0 0 Z " fill="#1D6CA5" transform="translate(213,212)"/>
<path d="M0 0 C1.34173403 0.92543709 2.67320159 1.86577405 4 2.8125 C5.11375 3.59560547 5.11375 3.59560547 6.25 4.39453125 C6.8275 4.92433594 7.405 5.45414063 8 6 C8 6.99 8 7.98 8 9 C6.265625 9.71484375 6.265625 9.71484375 4 10 C1.859375 8.56640625 1.859375 8.56640625 -0.25 6.5625 C-1.30960938 5.57443359 -1.30960938 5.57443359 -2.390625 4.56640625 C-2.92171875 4.04949219 -3.4528125 3.53257812 -4 3 C-3.01 2.67 -2.02 2.34 -1 2 C-0.67 1.34 -0.34 0.68 0 0 Z " fill="#104878" transform="translate(201,233)"/>
<path d="M0 0 C6.08888889 9.13333333 6.08888889 9.13333333 5.75 12.4375 C5.5025 12.953125 5.255 13.46875 5 14 C0.79236776 12.4972742 -0.8027758 9.76667005 -3 6 C-3 5.34 -3 4.68 -3 4 C-2.34 3.67 -1.68 3.34 -1 3 C-0.67 2.01 -0.34 1.02 0 0 Z " fill="#288CCC" transform="translate(189,230)"/>
<path d="M0 0 C0.4375 2.0625 0.4375 2.0625 0 5 C-2.09492908 7.5998607 -4.43453518 9.86518875 -7 12 C-7.33 12 -7.66 12 -8 12 C-8.875 9.375 -8.875 9.375 -9 6 C-6.59764539 2.42065286 -4.40485337 0 0 0 Z " fill="#145487" transform="translate(309,238)"/>
<path d="M0 0 C-2.65654657 3.73884332 -4.58110387 5.64978174 -9 7 C-9 6.34 -9 5.68 -9 5 C-12.3 5 -15.6 5 -19 5 C-19 4.67 -19 4.34 -19 4 C-17.783125 3.71125 -16.56625 3.4225 -15.3125 3.125 C-12.85466433 2.52026012 -10.71061315 1.87597707 -8.375 0.875 C-5.48315722 -0.19041576 -3.05698494 -0.14218535 0 0 Z " fill="#2581BE" transform="translate(273,265)"/>
<path d="M0 0 C2.25 0.25 2.25 0.25 4 1 C2.44499019 4.81684226 -0.03595495 7.19195732 -3 10 C-3.33 9.34 -3.66 8.68 -4 8 C-5.65 8.33 -7.3 8.66 -9 9 C-7.33333333 7.33333333 -5.66666667 5.66666667 -4 4 C-2.9790625 2.824375 -2.9790625 2.824375 -1.9375 1.625 C-1.298125 1.08875 -0.65875 0.5525 0 0 Z " fill="#185F94" transform="translate(275,210)"/>
<path d="M0 0 C2.57161458 0.03255208 5.14322917 0.06510417 7.71484375 0.09765625 C7.71484375 5.04765625 7.71484375 9.99765625 7.71484375 15.09765625 C7.38484375 15.09765625 7.05484375 15.09765625 6.71484375 15.09765625 C6.38484375 13.44765625 6.05484375 11.79765625 5.71484375 10.09765625 C5.38484375 10.09765625 5.05484375 10.09765625 4.71484375 10.09765625 C4.71484375 7.78765625 4.71484375 5.47765625 4.71484375 3.09765625 C1.79832201 2.93084516 1.79832201 2.93084516 -1.28515625 3.09765625 C-1.94515625 3.75765625 -2.60515625 4.41765625 -3.28515625 5.09765625 C-3.28515625 0.14039129 -3.28515625 0.14039129 0 0 Z " fill="#2685C3" transform="translate(411.28515625,360.90234375)"/>
<path d="M0 0 C0.3125 2.3125 0.3125 2.3125 0 5 C-2.86103423 7.24243223 -4.34076304 8 -8 8 C-8.36075949 3.55063291 -8.36075949 3.55063291 -6.8125 1.1875 C-4.44017475 -0.36678206 -2.77958655 -0.22537188 0 0 Z " fill="#183154" transform="translate(375,302)"/>
<path d="M0 0 C0.3125 2.3125 0.3125 2.3125 0 5 C-2.86103423 7.24243223 -4.34076304 8 -8 8 C-8.36075949 3.55063291 -8.36075949 3.55063291 -6.8125 1.1875 C-4.44017475 -0.36678206 -2.77958655 -0.22537188 0 0 Z " fill="#183154" transform="translate(249,302)"/>
<path d="M0 0 C0.66 0 1.32 0 2 0 C3.32 2.31 4.64 4.62 6 7 C5.34 7 4.68 7 4 7 C4 10.63 4 14.26 4 18 C3.67 18 3.34 18 3 18 C2.87882812 17.39671875 2.75765625 16.7934375 2.6328125 16.171875 C2.46523438 15.37265625 2.29765625 14.5734375 2.125 13.75 C1.96257812 12.96109375 1.80015625 12.1721875 1.6328125 11.359375 C1.08313037 8.97726277 1.08313037 8.97726277 -0.09375 6.875 C-1.3363856 4.3040298 -0.74556241 2.68402468 0 0 Z " fill="#247FBB" transform="translate(326,167)"/>
<path d="M0 0 C3.07692308 6.4 3.07692308 6.4 2.6875 9.4375 C2.460625 9.953125 2.23375 10.46875 2 11 C-1.21029714 9.89300099 -2.00968977 8.98396175 -3.8125 6 C-4.4003125 4.515 -4.4003125 4.515 -5 3 C-3.7124791 0.4249582 -2.85933002 0 0 0 Z " fill="#288BCA" transform="translate(198,225)"/>
<path d="M0 0 C0.66 0.33 1.32 0.66 2 1 C1.375 3.375 1.375 3.375 0 6 C-3.62830387 7.69835501 -5.15510125 8.28163292 -9 7 C-8.4375 5.1875 -8.4375 5.1875 -7 3 C-3.5 1.1875 -3.5 1.1875 0 0 Z " fill="#2F9EE2" transform="translate(207,124)"/>
<path d="M0 0 C1.2065625 0.0309375 1.2065625 0.0309375 2.4375 0.0625 C3.125 1.875 3.125 1.875 3.4375 4.0625 C2.3125 5.8125 2.3125 5.8125 0.4375 7.0625 C-2.25 7.25 -2.25 7.25 -4.5625 7.0625 C-3.5234375 0.0859375 -3.5234375 0.0859375 0 0 Z " fill="#0E284C" transform="translate(146.5625,301.9375)"/>
<path d="M0 0 C4.22797927 3.08290155 4.22797927 3.08290155 6 5 C6.375 7.8125 6.375 7.8125 6 10 C3.62051228 9.82374165 2.29774151 9.30280227 0.62109375 7.59765625 C-0.62115486 6.09350908 -1.81376056 4.54870149 -3 3 C-2.01 2.01 -1.02 1.02 0 0 Z " fill="#125082" transform="translate(221,207)"/>
<path d="M0 0 C4.20626034 1.50223584 5.73900021 4.28550034 8 8 C6.68 8.99 5.36 9.98 4 11 C3.13050683 9.92892883 2.27985795 8.84254056 1.4375 7.75 C0.96183594 7.14671875 0.48617188 6.5434375 -0.00390625 5.921875 C-1 4 -1 4 -0.65234375 1.765625 C-0.43707031 1.18296875 -0.22179687 0.6003125 0 0 Z " fill="#2F9FE2" transform="translate(279,182)"/>
<path d="M0 0 C2.25 0.125 2.25 0.125 5 1 C7.3125 4.0625 7.3125 4.0625 9 7 C7.35 7.66 5.7 8.32 4 9 C-0.00390625 4.60546875 -0.00390625 4.60546875 -1 3 C-0.67 2.01 -0.34 1.02 0 0 Z " fill="#155689" transform="translate(294,138)"/>
<path d="M0 0 C2.97 0 5.94 0 9 0 C9.1875 3.375 9.1875 3.375 9 7 C8.01 7.66 7.02 8.32 6 9 C5.34 8.34 4.68 7.68 4 7 C4.66 7 5.32 7 6 7 C6 5.68 6 4.36 6 3 C4.02 3 2.04 3 0 3 C0 2.01 0 1.02 0 0 Z " fill="#2A91D1" transform="translate(101,365)"/>
<path d="M0 0 C0.66 0.33 1.32 0.66 2 1 C2 2.32 2 3.64 2 5 C-1.3 5 -4.6 5 -8 5 C-7.67 5.99 -7.34 6.98 -7 8 C-4.36 8 -1.72 8 1 8 C0.67 8.99 0.34 9.98 0 11 C-6.625 11.25 -6.625 11.25 -10 9 C-9.67 7.35 -9.34 5.7 -9 4 C-6.03 4 -3.06 4 0 4 C0 2.68 0 1.36 0 0 Z " fill="#30A1E5" transform="translate(289,364)"/>
<path d="M0 0 C1 2 1 2 0.875 4.375 C-0.27913892 7.83741675 -1.99541235 9.02136911 -5 11 C-5.66 11 -6.32 11 -7 11 C-7.4375 8.875 -7.4375 8.875 -7 6 C-4.87310854 3.723853 -2.4976567 1.8541278 0 0 Z " fill="#2789C7" transform="translate(248,153)"/>
<path d="M0 0 C1.875 0.0625 1.875 0.0625 4 1 C6.25 3.5625 6.25 3.5625 8 6 C7.01 6.33 6.02 6.66 5 7 C4.67 7.66 4.34 8.32 4 9 C2.02 6.69 0.04 4.38 -2 2 C-1.34 1.34 -0.68 0.68 0 0 Z " fill="#114B7C" transform="translate(277,153)"/>
<path d="M0 0 C2 1 2 1 2.875 2.625 C3.076657 6.45648309 1.02704888 8.80586237 -1 12 C-1.66 12 -2.32 12 -3 12 C-3.75 9.375 -3.75 9.375 -4 6 C-2.0625 2.625 -2.0625 2.625 0 0 Z " fill="#093561" transform="translate(199,141)"/>
<path d="M0 0 C0.66 0 1.32 0 2 0 C2 1.32 2 2.64 2 4 C2.66 4.33 3.32 4.66 4 5 C3.34 5 2.68 5 2 5 C2 8.3 2 11.6 2 15 C2.99 15 3.98 15 5 15 C5 15.66 5 16.32 5 17 C3.35 16.67 1.7 16.34 0 16 C0 12.37 0 8.74 0 5 C-0.66 4.67 -1.32 4.34 -2 4 C-1.34 4 -0.68 4 0 4 C0 2.68 0 1.36 0 0 Z " fill="#37B3FB" transform="translate(360,358)"/>
<path d="M0 0 C0.99 0 1.98 0 3 0 C3 4.62 3 9.24 3 14 C2.01 14 1.02 14 0 14 C0 9.38 0 4.76 0 0 Z " fill="#2786C5" transform="translate(373,361)"/>
<path d="M0 0 C0.78375 0.04125 1.5675 0.0825 2.375 0.125 C2.5625 2.5 2.5625 2.5 2.375 5.125 C-0.625 7.125 -0.625 7.125 -4.625 7.125 C-4.75 4.75 -4.75 4.75 -4.625 2.125 C-2.625 0.125 -2.625 0.125 0 0 Z " fill="#072247" transform="translate(416.625,301.875)"/>
<path d="M0 0 C0.70125 0.268125 1.4025 0.53625 2.125 0.8125 C1.19847299 1.98789996 0.25836613 3.15260577 -0.6875 4.3125 C-1.20957031 4.9621875 -1.73164063 5.611875 -2.26953125 6.28125 C-3.875 7.8125 -3.875 7.8125 -6.875 7.8125 C-6.875 7.1525 -6.875 6.4925 -6.875 5.8125 C-7.535 5.4825 -8.195 5.1525 -8.875 4.8125 C-3.58269231 -0.23365385 -3.58269231 -0.23365385 0 0 Z " fill="#1D6CA4" transform="translate(280.875,220.1875)"/>
<path d="M0 0 C0.66 0.99 1.32 1.98 2 3 C0.84826645 5.46800047 -0.04783565 7.04783565 -2 9 C-4.625 8.625 -4.625 8.625 -7 8 C-6.21366078 6.85050412 -5.42073742 5.70551011 -4.625 4.5625 C-4.18414062 3.92441406 -3.74328125 3.28632813 -3.2890625 2.62890625 C-2 1 -2 1 0 0 Z " fill="#08335F" transform="translate(286,212)"/>
<path d="M0 0 C3.25543229 0.34879632 4.01873107 1.02133261 6.25 3.5625 C7.11625 4.7690625 7.11625 4.7690625 8 6 C6.68 6.99 5.36 7.98 4 9 C1.4375 6.75 1.4375 6.75 -1 4 C-0.8125 1.6875 -0.8125 1.6875 0 0 Z " fill="#135083" transform="translate(272,161)"/>
<path d="M0 0 C0.33663062 3.70293685 0.47736015 5.39534381 -1.875 8.375 C-4 10 -4 10 -6 10 C-6.8125 7.8125 -6.8125 7.8125 -7 5 C-2.88888889 0 -2.88888889 0 0 0 Z " fill="#08325D" transform="translate(272,202)"/>
<path d="M0 0 C0.375 2.1875 0.375 2.1875 0 5 C-1.83961648 6.99022836 -3.79186148 8.38989899 -6 10 C-6.33 9.01 -6.66 8.02 -7 7 C-7.66 6.67 -8.32 6.34 -9 6 C-7.8803014 4.99406757 -6.7540588 3.9954151 -5.625 3 C-4.68527344 2.1646875 -4.68527344 2.1646875 -3.7265625 1.3125 C-2 0 -2 0 0 0 Z " fill="#1B669D" transform="translate(266,208)"/>
<path d="M0 0 C3.25543229 0.34879632 4.01873107 1.02133261 6.25 3.5625 C7.11625 4.7690625 7.11625 4.7690625 8 6 C6.68 6.99 5.36 7.98 4 9 C-0.00390625 4.60546875 -0.00390625 4.60546875 -1 3 C-0.67 2.01 -0.34 1.02 0 0 Z " fill="#1D6CA4" transform="translate(302,132)"/>
<path d="M0 0 C1.32 0 2.64 0 4 0 C3.38461538 6.52307692 3.38461538 6.52307692 1.4375 8.9375 C0.963125 9.288125 0.48875 9.63875 0 10 C0 8.68 0 7.36 0 6 C-0.99 5.67 -1.98 5.34 -3 5 C-1.75 2.5 -1.75 2.5 0 0 Z " fill="#08335E" transform="translate(309,232)"/>
<path d="M0 0 C1.875 0.625 1.875 0.625 4 2 C5.25 5.125 5.25 5.125 6 8 C4.35 8.33 2.7 8.66 1 9 C-0.61949011 6.42786866 -1.04408751 5.32330841 -0.625 2.25 C-0.41875 1.5075 -0.2125 0.765 0 0 Z " fill="#298DCD" transform="translate(308,138)"/>
<path d="M0 0 C0.33 0.66 0.66 1.32 1 2 C3.02463255 2.65213292 3.02463255 2.65213292 5 3 C3.3125 5.5 3.3125 5.5 1 8 C-1.75 8.3125 -1.75 8.3125 -4 8 C-2.87548273 5.0280615 -1.77706209 2.66559313 0 0 Z " fill="#0E4473" transform="translate(191,135)"/>
<path d="M0 0 C0.33 0.66 0.66 1.32 1 2 C2.65 2 4.3 2 6 2 C4.7934375 2.9590625 4.7934375 2.9590625 3.5625 3.9375 C1.7249496 5.40603502 1.7249496 5.40603502 0 7 C-1.66617115 7.04063832 -3.33388095 7.042721 -5 7 C-3.75023244 3.34683329 -3.32901247 2.21934164 0 0 Z " fill="#2074AF" transform="translate(230,109)"/>
<path d="M0 0 C0 1.65 0 3.3 0 5 C-1.5625 6.125 -1.5625 6.125 -4 7 C-7.75 6.125 -7.75 6.125 -11 5 C-10.443125 4.731875 -9.88625 4.46375 -9.3125 4.1875 C-6.91066602 2.99300335 -6.91066602 2.99300335 -4.375 1.375 C-2 0 -2 0 0 0 Z " fill="#2789C8" transform="translate(301,245)"/>
<path d="M0 0 C2.5625 2.25 2.5625 2.25 5 5 C4.8125 7.3125 4.8125 7.3125 4 9 C0.63279613 7.60667426 -0.9859524 6.0210714 -3 3 C-2.01 2.01 -1.02 1.02 0 0 Z " fill="#2480BD" transform="translate(219,191)"/>
<path d="M0 0 C2.88575819 0.39803561 3.82189513 0.79009069 5.75 3.0625 C6.1625 3.701875 6.575 4.34125 7 5 C5.68 5.99 4.36 6.98 3 8 C0.9375 6.25 0.9375 6.25 -1 4 C-0.75 1.75 -0.75 1.75 0 0 Z " fill="#0F4777" transform="translate(267,169)"/>
<path d="M0 0 C1.1446875 0.3403125 1.1446875 0.3403125 2.3125 0.6875 C0.625 3.6875 0.625 3.6875 -1.6875 6.6875 C-4.4375 7.0625 -4.4375 7.0625 -6.6875 6.6875 C-6.28750283 4.36751641 -5.78182121 2.82426576 -4.4375 0.875 C-2.6875 -0.3125 -2.6875 -0.3125 0 0 Z " fill="#052C56" transform="translate(216.6875,159.3125)"/>
<path d="M0 0 C0.66 0 1.32 0 2 0 C2.66 2.31 3.32 4.62 4 7 C6.31 7.33 8.62 7.66 11 8 C10.67 8.99 10.34 9.98 10 11 C10 10.34 10 9.68 10 9 C8.906875 9.226875 7.81375 9.45375 6.6875 9.6875 C3 10 3 10 1.0625 9 C-0.52633023 6.00926074 -0.18792343 3.31998061 0 0 Z " fill="#32A5EA" transform="translate(406,365)"/>
<path d="M0 0 C0 0.66 0 1.32 0 2 C-0.99 2.66 -1.98 3.32 -3 4 C-3.58189266 6.42521494 -3.58189266 6.42521494 -3.6875 9.125 C-3.75324219 10.03507812 -3.81898438 10.94515625 -3.88671875 11.8828125 C-3.92410156 12.58148438 -3.96148437 13.28015625 -4 14 C-4.66 14 -5.32 14 -6 14 C-6 9.71 -6 5.42 -6 1 C-2 0 -2 0 0 0 Z " fill="#30A0E4" transform="translate(270,361)"/>
<path d="M0 0 C3 -0.3125 3 -0.3125 6 0 C8 2 8 2 8.1953125 4.8203125 C8.16050781 6.45613281 8.16050781 6.45613281 8.125 8.125 C8.10695313 9.22070312 8.08890625 10.31640625 8.0703125 11.4453125 C8.04710937 12.28835938 8.02390625 13.13140625 8 14 C7.67 14 7.34 14 7 14 C6.34 11.69 5.68 9.38 5 7 C5.66 7 6.32 7 7 7 C6.34 5.68 5.68 4.36 5 3 C2.69 3 0.38 3 -2 3 C-1.34 2.01 -0.68 1.02 0 0 Z " fill="#33A8EE" transform="translate(322,361)"/>
<path d="M0 0 C0.33 0 0.66 0 1 0 C1.33 2.31 1.66 4.62 2 7 C4.31 7.66 6.62 8.32 9 9 C8.67 9.66 8.34 10.32 8 11 C2.63157895 11.35789474 2.63157895 11.35789474 0.125 9.9375 C-1.59944167 6.96762823 -1.24840147 4.35341985 -1 1 C-0.67 0.67 -0.34 0.34 0 0 Z " fill="#33AAF0" transform="translate(132,364)"/>
<path d="M0 0 C2.625 0.375 2.625 0.375 5 1 C5 2.32 5 3.64 5 5 C3.35 5.33 1.7 5.66 0 6 C-0.66 4.68 -1.32 3.36 -2 2 C-1.34 1.34 -0.68 0.68 0 0 Z " fill="#042851" transform="translate(323,368)"/>
<path d="M0 0 C0.33 1.32 0.66 2.64 1 4 C-0.98 5.32 -2.96 6.64 -5 8 C-5.33 7.01 -5.66 6.02 -6 5 C-6.66 4.67 -7.32 4.34 -8 4 C-3.375 0 -3.375 0 0 0 Z " fill="#2A91D2" transform="translate(274,226)"/>
<path d="M0 0 C1.65 1.32 3.3 2.64 5 4 C4.34 5.32 3.68 6.64 3 8 C-0.16115776 6.63016497 -0.9927092 6.0109362 -3 3 C-2.01 2.01 -1.02 1.02 0 0 Z " fill="#0A3966" transform="translate(221,220)"/>
<path d="M0 0 C0.21931821 3.21666704 0.26828383 5.43362303 -1.125 8.375 C-3 10 -3 10 -6.1875 10.25 C-7.115625 10.1675 -8.04375 10.085 -9 10 C-9.33 9.34 -9.66 8.68 -10 8 C-8.02 7.67 -6.04 7.34 -4 7 C-3.814375 5.5459375 -3.814375 5.5459375 -3.625 4.0625 C-3.41875 3.051875 -3.2125 2.04125 -3 1 C-1 0 -1 0 0 0 Z " fill="#2C95D6" transform="translate(166,365)"/>
<path d="M0 0 C2.0625 1.75 2.0625 1.75 4 4 C3.75 6.25 3.75 6.25 3 8 C-0.16115776 6.63016497 -0.9927092 6.0109362 -3 3 C-2.01 2.01 -1.02 1.02 0 0 Z " fill="#298DCC" transform="translate(209,207)"/>
<path d="M0 0 C2.35448165 2.55068845 2.98327924 3.71017358 3.1875 7.25 C3.125625 8.1575 3.06375 9.065 3 10 C0.37812506 8.95125002 -0.79371361 8.35068687 -2.25 5.875 C-2.4975 5.25625 -2.745 4.6375 -3 4 C-2.34 3.67 -1.68 3.34 -1 3 C-0.67 2.01 -0.34 1.02 0 0 Z " fill="#2177B2" transform="translate(171,202)"/>
<path d="M0 0 C0.66 0.33 1.32 0.66 2 1 C1.125 5.875 1.125 5.875 0 7 C-1.66617115 7.04063832 -3.33388095 7.042721 -5 7 C-3.70700306 4.11562221 -2.34058637 2.12780579 0 0 Z " fill="#175B8F" transform="translate(220,153)"/>
<path d="M0 0 C0.66 0.33 1.32 0.66 2 1 C2.1875 3.375 2.1875 3.375 2 6 C-1 8 -1 8 -4 8 C-3.50168276 4.31245243 -2.89932357 2.39509338 0 0 Z " fill="#2F9EE1" transform="translate(238,149)"/>
<path d="M0 0 C0.99 0.33 1.98 0.66 3 1 C4.1875 4.0625 4.1875 4.0625 5 7 C3.35 7.33 1.7 7.66 0 8 C-0.66 6.02 -1.32 4.04 -2 2 C-1.34 1.34 -0.68 0.68 0 0 Z " fill="#2686C4" transform="translate(301,145)"/>
<path d="M0 0 C1.65 1.65 3.3 3.3 5 5 C4.34 5.66 3.68 6.32 3 7 C1 6.8125 1 6.8125 -1 6 C-1.66 5.01 -2.32 4.02 -3 3 C-2.01 2.01 -1.02 1.02 0 0 Z " fill="#175C91" transform="translate(195,241)"/>
<path d="M0 0 C0.33 0 0.66 0 1 0 C1.25 3.3125 1.25 3.3125 1 7 C-1 8.9375 -1 8.9375 -3 10 C-3.33 8.02 -3.66 6.04 -4 4 C-2.68 3.34 -1.36 2.68 0 2 C0 1.34 0 0.68 0 0 Z " fill="#124D7F" transform="translate(301,229)"/>
<path d="M0 0 C1.65 1.32 3.3 2.64 5 4 C4.34 5.32 3.68 6.64 3 8 C-0.875 6.25 -0.875 6.25 -2 4 C-1.34 4 -0.68 4 0 4 C0 2.68 0 1.36 0 0 Z " fill="#093763" transform="translate(227,213)"/>
<path d="M0 0 C0.12375 0.639375 0.2475 1.27875 0.375 1.9375 C0.684375 2.9584375 0.684375 2.9584375 1 4 C1.66 4.33 2.32 4.66 3 5 C1.02 6.32 -0.96 7.64 -3 9 C-3.75 6.75 -3.75 6.75 -4 4 C-2.0625 1.6875 -2.0625 1.6875 0 0 Z " fill="#1A659C" transform="translate(204,136)"/>
<path d="M0 0 C1.32 0 2.64 0 4 0 C4 1.32 4 2.64 4 4 C5.65 4 7.3 4 9 4 C9 4.33 9 4.66 9 5 C5.7 5 2.4 5 -1 5 C-0.67 3.35 -0.34 1.7 0 0 Z " fill="#2D98DB" transform="translate(213,132)"/>
<path d="M0 0 C1.65 0.33 3.3 0.66 5 1 C5 2.32 5 3.64 5 5 C3.02 5 1.04 5 -1 5 C-0.67 3.35 -0.34 1.7 0 0 Z " fill="#012047" transform="translate(178,368)"/>
<path d="M0 0 C2.475 0.99 2.475 0.99 5 2 C5 5 5 5 3 8 C1.5 6.8125 1.5 6.8125 0 5 C-0.1875 2.3125 -0.1875 2.3125 0 0 Z " fill="#0E4473" transform="translate(321,163)"/>
<path d="M0 0 C3.0625 0.25 3.0625 0.25 6 1 C6.33 1.66 6.66 2.32 7 3 C5.68 3.99 4.36 4.98 3 6 C1.35 4.68 -0.3 3.36 -2 2 C-1.34 1.34 -0.68 0.68 0 0 Z " fill="#0B3C6A" transform="translate(289,135)"/>
<path d="M0 0 C0.33 0.99 0.66 1.98 1 3 C-1.64 3 -4.28 3 -7 3 C-7 2.01 -7 1.02 -7 0 C-4.3333581 -1.33332095 -2.83319697 -0.67102033 0 0 Z " fill="#02234B" transform="translate(288,364)"/>
<path d="M0 0 C0 0.66 0 1.32 0 2 C0.66 2.33 1.32 2.66 2 3 C-0.97 5.475 -0.97 5.475 -4 8 C-4.6875 5.6875 -4.6875 5.6875 -5 3 C-3.40083326 0.79162689 -2.76966516 0 0 0 Z " fill="#135285" transform="translate(227,161)"/>
<path d="M0 0 C-0.39803561 2.88575819 -0.79009069 3.82189513 -3.0625 5.75 C-3.701875 6.1625 -4.34125 6.575 -5 7 C-5 5.68 -5 4.36 -5 3 C-5.66 2.67 -6.32 2.34 -7 2 C-4.35261084 0.5393715 -3.10551666 0 0 0 Z " fill="#2179B4" transform="translate(271,218)"/>
<path d="M0 0 C2 1.1875 2 1.1875 4 3 C4.25 5.6875 4.25 5.6875 4 8 C2.0625 7.625 2.0625 7.625 0 7 C-1.33332095 4.3333581 -0.67102033 2.83319697 0 0 Z " fill="#0F4676" transform="translate(174,207)"/>
<path d="M0 0 C3.875 1.75 3.875 1.75 5 4 C3.68 4.99 2.36 5.98 1 7 C0.01 6.01 -0.98 5.02 -2 4 C-1.34 2.68 -0.68 1.36 0 0 Z " fill="#072F59" transform="translate(264,165)"/>
<path d="M0 0 C0.33 1.98 0.66 3.96 1 6 C-1.475 7.485 -1.475 7.485 -4 9 C-4.368 3.48 -4.368 3.48 -2.5625 1.125 C-1 0 -1 0 0 0 Z " fill="#1C69A1" transform="translate(241,159)"/>
<path d="M0 0 C1.32 0.99 2.64 1.98 4 3 C3.67 4.32 3.34 5.64 3 7 C1.68 6.67 0.36 6.34 -1 6 C-1 3 -1 3 0 0 Z " fill="#145486" transform="translate(217,216)"/>
<path d="M0 0 C0.66 0.33 1.32 0.66 2 1 C1.67 1.33 1.34 1.66 1 2 C3.97 2.495 3.97 2.495 7 3 C3.36576791 5.32590854 0.22911669 5.16265833 -4 5 C-2.25 1.125 -2.25 1.125 0 0 Z " fill="#2B92D3" transform="translate(235,106)"/>
<path d="M0 0 C0.33 0.99 0.66 1.98 1 3 C1.66 3 2.32 3 3 3 C2.34 5.31 1.68 7.62 1 10 C0.71125 9.360625 0.4225 8.72125 0.125 8.0625 C-0.82823451 5.84793921 -0.82823451 5.84793921 -3 5 C-2.01 3.35 -1.02 1.7 0 0 Z " fill="#08335E" transform="translate(302,225)"/>
<path d="M0 0 C2.875 -0.1875 2.875 -0.1875 6 0 C8.29013653 3.4352048 8.17842973 4.985331 8 9 C7.34 9 6.68 9 6 9 C5.7525 7.88625 5.505 6.7725 5.25 5.625 C4.38994661 1.95384802 4.38994661 1.95384802 1.875 0.5625 C1.25625 0.376875 0.6375 0.19125 0 0 Z " fill="#35AEF6" transform="translate(246,362)"/>
<path d="M0 0 C0.763125 0.0825 1.52625 0.165 2.3125 0.25 C1.6525 1.57 0.9925 2.89 0.3125 4.25 C-1.6675 4.25 -3.6475 4.25 -5.6875 4.25 C-3.34903846 0.31153846 -3.34903846 0.31153846 0 0 Z " fill="#0E4474" transform="translate(273.6875,260.75)"/>
<path d="M0 0 C0.99 0.66 1.98 1.32 3 2 C2.67 3.32 2.34 4.64 2 6 C0.125 5.6875 0.125 5.6875 -2 5 C-2.66 4.01 -3.32 3.02 -4 2 C-3.01 2 -2.02 2 -1 2 C-0.67 1.34 -0.34 0.68 0 0 Z " fill="#186095" transform="translate(201,233)"/>
<path d="M0 0 C3.875 1.75 3.875 1.75 5 4 C3.68 4.99 2.36 5.98 1 7 C-1 4 -1 4 -0.625 1.8125 C-0.41875 1.214375 -0.2125 0.61625 0 0 Z " fill="#288BCB" transform="translate(279,182)"/>
<path d="M0 0 C0.66 0.33 1.32 0.66 2 1 C2.625 3.0625 2.625 3.0625 3 5 C1.68 5.99 0.36 6.98 -1 8 C-1.66 6.35 -2.32 4.7 -3 3 C-2.34 3 -1.68 3 -1 3 C-0.67 2.01 -0.34 1.02 0 0 Z " fill="#08335F" transform="translate(229,169)"/>
<path d="M0 0 C1.5625 1.25 1.5625 1.25 3 3 C2.6875 5.1875 2.6875 5.1875 2 7 C-1.875 5.25 -1.875 5.25 -3 3 C-2.01 2.01 -1.02 1.02 0 0 Z " fill="#2178B3" transform="translate(192,237)"/>
<path d="M0 0 C1.32 1.32 2.64 2.64 4 4 C2.02 4.99 2.02 4.99 0 6 C-0.99 4.68 -1.98 3.36 -3 2 C-2.01 1.34 -1.02 0.68 0 0 Z " fill="#0D3F6D" transform="translate(231,205)"/>
<path d="M0 0 C0.33 0 0.66 0 1 0 C1.98248524 4.0527516 2.08159574 7.83861737 2 12 C0.68 11.34 -0.64 10.68 -2 10 C-2 9.34 -2 8.68 -2 8 C-1.34 8 -0.68 8 0 8 C0 5.36 0 2.72 0 0 Z " fill="#2E9CDF" transform="translate(169,195)"/>
<path d="M0 0 C3.875 1.75 3.875 1.75 5 4 C3.68 4.99 2.36 5.98 1 7 C-1 4 -1 4 -0.625 1.8125 C-0.41875 1.214375 -0.2125 0.61625 0 0 Z " fill="#2F9EE2" transform="translate(284,174)"/>
<path d="M0 0 C0 1.98 0 3.96 0 6 C-1.32 6.33 -2.64 6.66 -4 7 C-4.33 6.01 -4.66 5.02 -5 4 C-1.125 0 -1.125 0 0 0 Z " fill="#1E6FA8" transform="translate(231,156)"/>
<path d="M0 0 C3.875 1.75 3.875 1.75 5 4 C3.35 4.66 1.7 5.32 0 6 C-0.38218767 4.34385343 -0.71395102 2.67542976 -1 1 C-0.67 0.67 -0.34 0.34 0 0 Z " fill="#1D6EA6" transform="translate(298,141)"/>
<path d="M0 0 C0.12375 0.639375 0.2475 1.27875 0.375 1.9375 C0.684375 2.9584375 0.684375 2.9584375 1 4 C1.66 4.33 2.32 4.66 3 5 C-0.01031744 5.93423645 -0.86650268 6.04449911 -4 5 C-2.25 1.125 -2.25 1.125 0 0 Z " fill="#2787C5" transform="translate(202,126)"/>
<path d="M0 0 C1.65 0.33 3.3 0.66 5 1 C5 1.99 5 2.98 5 4 C3.02 4 1.04 4 -1 4 C-0.67 2.68 -0.34 1.36 0 0 Z " fill="#062E59" transform="translate(178,363)"/>
<path d="M0 0 C1.98 0 3.96 0 6 0 C4.63016497 3.16115776 4.0109362 3.9927092 1 6 C0.67 4.02 0.34 2.04 0 0 Z " fill="#1E6EA7" transform="translate(300,244)"/>
<path d="M0 0 C0.99 0.66 1.98 1.32 3 2 C2.67 3.32 2.34 4.64 2 6 C0.0625 5.625 0.0625 5.625 -2 5 C-2.33 4.34 -2.66 3.68 -3 3 C-2.01 2.01 -1.02 1.02 0 0 Z " fill="#1A639A" transform="translate(221,207)"/>
<path d="M0 0 C0.99 0.66 1.98 1.32 3 2 C2.67 3.32 2.34 4.64 2 6 C0.0625 5.625 0.0625 5.625 -2 5 C-2.33 4.34 -2.66 3.68 -3 3 C-2.01 2.01 -1.02 1.02 0 0 Z " fill="#1A649B" transform="translate(224,197)"/>
<path d="M0 0 C0.66 0.33 1.32 0.66 2 1 C2.625 3.0625 2.625 3.0625 3 5 C1.35 5.33 -0.3 5.66 -2 6 C-1.125 1.125 -1.125 1.125 0 0 Z " fill="#114B7C" transform="translate(199,141)"/>
<path d="M0 0 C0.33 0 0.66 0 1 0 C1 3.3 1 6.6 1 10 C1.99 10 2.98 10 4 10 C4 10.66 4 11.32 4 12 C2.35 11.67 0.7 11.34 -1 11 C-0.67 7.37 -0.34 3.74 0 0 Z " fill="#33A8EE" transform="translate(361,363)"/>
<path d="M0 0 C0.99 0.66 1.98 1.32 3 2 C2.67 2.99 2.34 3.98 2 5 C-0.97 4.505 -0.97 4.505 -4 4 C-2.68 2.68 -1.36 1.36 0 0 Z " fill="#0E4474" transform="translate(200,245)"/>
<path d="M0 0 C1.32 0.66 2.64 1.32 4 2 C2.75 3.5625 2.75 3.5625 1 5 C-1.1875 4.6875 -1.1875 4.6875 -3 4 C-2.01 2.68 -1.02 1.36 0 0 Z " fill="#062F59" transform="translate(210,240)"/>
<path d="M0 0 C1.32 0.33 2.64 0.66 4 1 C3.34 2.32 2.68 3.64 2 5 C0.68 4.34 -0.64 3.68 -2 3 C-1.34 2.01 -0.68 1.02 0 0 Z " fill="#052B54" transform="translate(234,209)"/>
<path d="M0 0 C0.66 0 1.32 0 2 0 C2 1.98 2 3.96 2 6 C1.01 6.33 0.02 6.66 -1 7 C-1.625 4.625 -1.625 4.625 -2 2 C-1.34 1.34 -0.68 0.68 0 0 Z " fill="#0E4372" transform="translate(267,205)"/>
<path d="M0 0 C1.65 0.99 3.3 1.98 5 3 C3.68 4.32 2.36 5.64 1 7 C-1 4 -1 4 -0.625 1.8125 C-0.41875 1.214375 -0.2125 0.61625 0 0 Z " fill="#2E9ADD" transform="translate(289,166)"/>
<path d="M0 0 C0.66 0 1.32 0 2 0 C2 1.65 2 3.3 2 5 C0.02 5 -1.96 5 -4 5 C-2.71937515 3.2925002 -1.38232443 1.62626404 0 0 Z " fill="#093763" transform="translate(221,165)"/>
<path d="M0 0 C2.475 0.99 2.475 0.99 5 2 C3.68 3.32 2.36 4.64 1 6 C0.01 4.68 -0.98 3.36 -2 2 C-1.34 1.34 -0.68 0.68 0 0 Z " fill="#08345F" transform="translate(269,158)"/>
<path d="M0 0 C0.99 0.99 1.98 1.98 3 3 C2.01 4.485 2.01 4.485 1 6 C0.01 6 -0.98 6 -2 6 C-1.125 1.125 -1.125 1.125 0 0 Z " fill="#298DCD" transform="translate(227,147)"/>
<path d="M0 0 C1.9451 2.91765 2.45276317 4.62537285 3 8 C2.01 8.495 2.01 8.495 1 9 C0.01 8.01 -0.98 7.02 -2 6 C-1.34 5.34 -0.68 4.68 0 4 C0 2.68 0 1.36 0 0 Z " fill="#2076B0" transform="translate(198,227)"/>
<path d="M0 0 C-0.375 2.4375 -0.375 2.4375 -1 5 C-1.99 5.495 -1.99 5.495 -3 6 C-3.33 5.01 -3.66 4.02 -4 3 C-4.66 2.67 -5.32 2.34 -6 2 C-3 0 -3 0 0 0 Z " fill="#2E9CDF" transform="translate(253,220)"/>
<path d="M0 0 C2.0625 0.4375 2.0625 0.4375 4 1 C2.84826645 3.46800047 1.95216435 5.04783565 0 7 C-0.38133299 5.0085944 -0.71325582 3.00720923 -1 1 C-0.67 0.67 -0.34 0.34 0 0 Z " fill="#0E4474" transform="translate(275,210)"/>
<path d="M0 0 C2.625 0.375 2.625 0.375 5 1 C3.68 2.32 2.36 3.64 1 5 C0.01 4.01 -0.98 3.02 -2 2 C-1.34 1.34 -0.68 0.68 0 0 Z " fill="#083460" transform="translate(295,127)"/>
<path d="M0 0 C0.33 0.99 0.66 1.98 1 3 C-1.64 3.66 -4.28 4.32 -7 5 C-7 4.01 -7 3.02 -7 2 C-2.25 0.875 -2.25 0.875 0 2 C0 1.34 0 0.68 0 0 Z " fill="#2A90D0" transform="translate(328,365)"/>
<path d="M0 0 C1.65 0 3.3 0 5 0 C5.33 1.32 5.66 2.64 6 4 C3.03 3.505 3.03 3.505 0 3 C0 2.01 0 1.02 0 0 Z " fill="#042851" transform="translate(322,363)"/>
<path d="M0 0 C1.65 1.65 3.3 3.3 5 5 C2.03 4.505 2.03 4.505 -1 4 C-1 1 -1 1 0 0 Z " fill="#08325D" transform="translate(266,236)"/>
<path d="M0 0 C0.66 0 1.32 0 2 0 C2 1.65 2 3.3 2 5 C0.35 4.67 -1.3 4.34 -3 4 C-1.625 2 -1.625 2 0 0 Z " fill="#114B7C" transform="translate(282,216)"/>
<path d="M0 0 C0 1.65 0 3.3 0 5 C-0.99 5.33 -1.98 5.66 -3 6 C-3 5.01 -3 4.02 -3 3 C-3.66 2.67 -4.32 2.34 -5 2 C-1.125 0 -1.125 0 0 0 Z " fill="#2076B0" transform="translate(260,214)"/>
<path d="M0 0 C0.66 0 1.32 0 2 0 C2.1875 2.375 2.1875 2.375 2 5 C1.01 5.66 0.02 6.32 -1 7 C-1.625 4.625 -1.625 4.625 -2 2 C-1.34 1.34 -0.68 0.68 0 0 Z " fill="#15578A" transform="translate(264,208)"/>
<path d="M0 0 C0.66 0 1.32 0 2 0 C2 1.98 2 3.96 2 6 C-0.475 5.01 -0.475 5.01 -3 4 C-1.625 2 -1.625 2 0 0 Z " fill="#072F5A" transform="translate(278,206)"/>
<path d="M0 0 C0.66 0.33 1.32 0.66 2 1 C1.6875 3.375 1.6875 3.375 1 6 C0.01 6.66 -0.98 7.32 -2 8 C-1.125 2.25 -1.125 2.25 0 0 Z " fill="#0A3965" transform="translate(200,203)"/>
<path d="M0 0 C0.99 0.99 1.98 1.98 3 3 C2.34 4.65 1.68 6.3 1 8 C-1 6 -1 6 -1.1875 3.4375 C-1 1 -1 1 0 0 Z " fill="#1C69A1" transform="translate(320,174)"/>
<path d="M0 0 C2.475 0.99 2.475 0.99 5 2 C3.625 3.5 3.625 3.5 2 5 C1.34 5 0.68 5 0 5 C-0.5625 3.0625 -0.5625 3.0625 -1 1 C-0.67 0.67 -0.34 0.34 0 0 Z " fill="#30A0E4" transform="translate(229,145)"/>
<path d="M0 0 C0.33 0.66 0.66 1.32 1 2 C3.02463255 2.65213292 3.02463255 2.65213292 5 3 C3.625 4.5 3.625 4.5 2 6 C1.34 6 0.68 6 0 6 C-0.38218767 4.34385343 -0.71395102 2.67542976 -1 1 C-0.67 0.67 -0.34 0.34 0 0 Z " fill="#1F72AC" transform="translate(197,129)"/>
<path d="M0 0 C0.33 0.66 0.66 1.32 1 2 C1.99 2.33 2.98 2.66 4 3 C3.67 3.66 3.34 4.32 3 5 C1.35 5 -0.3 5 -2 5 C-1.34 3.35 -0.68 1.7 0 0 Z " fill="#135284" transform="translate(227,111)"/>
<path d="M0 0 C0.66 0 1.32 0 2 0 C2 1.65 2 3.3 2 5 C1.01 5.33 0.02 5.66 -1 6 C-1.625 4.125 -1.625 4.125 -2 2 C-1.34 1.34 -0.68 0.68 0 0 Z " fill="#104878" transform="translate(232,167)"/>
<path d="M0 0 C2.0625 0.4375 2.0625 0.4375 4 1 C4 1.99 4 2.98 4 4 C3.34 3.67 2.68 3.34 2 3 C1.34 3.66 0.68 4.32 0 5 C-0.5625 3.0625 -0.5625 3.0625 -1 1 C-0.67 0.67 -0.34 0.34 0 0 Z " fill="#2584C1" transform="translate(287,164)"/>
<path d="M0 0 C1.67542976 0.28604898 3.34385343 0.61781233 5 1 C3.35 2.65 1.7 4.3 0 6 C-0.38218767 4.34385343 -0.71395102 2.67542976 -1 1 C-0.67 0.67 -0.34 0.34 0 0 Z " fill="#0D3F6D" transform="translate(214,159)"/>
<path d="M0 0 C0.33 0.99 0.66 1.98 1 3 C3.01508358 3.73323796 3.01508358 3.73323796 5 4 C3.02 4.33 1.04 4.66 -1 5 C-1 1 -1 1 0 0 Z " fill="#1B679E" transform="translate(237,115)"/>
</svg>
